<mxfile host="65bd71144e">
    <diagram id="RaTTPVC0k8meCuHwdyOm" name="第 1 页">
        <mxGraphModel dx="1004" dy="792" grid="0" gridSize="10" guides="1" tooltips="1" connect="1" arrows="1" fold="1" page="1" pageScale="1" pageWidth="827" pageHeight="1169" background="none" math="0" shadow="0">
            <root>
                <mxCell id="0"/>
                <mxCell id="1" parent="0"/>
                <mxCell id="555" value="" style="endArrow=none;html=1;" parent="1" edge="1">
                    <mxGeometry width="50" height="50" relative="1" as="geometry">
                        <mxPoint x="280" y="360" as="sourcePoint"/>
                        <mxPoint x="520" y="360" as="targetPoint"/>
                    </mxGeometry>
                </mxCell>
                <mxCell id="556" value="" style="ellipse;whiteSpace=wrap;html=1;" parent="1" vertex="1">
                    <mxGeometry x="358" y="215" width="105" height="79" as="geometry"/>
                </mxCell>
                <mxCell id="557" value="" style="endArrow=none;html=1;" parent="1" edge="1">
                    <mxGeometry width="50" height="50" relative="1" as="geometry">
                        <mxPoint x="404" y="83" as="sourcePoint"/>
                        <mxPoint x="443" y="79" as="targetPoint"/>
                    </mxGeometry>
                </mxCell>
                <mxCell id="558" value="" style="endArrow=none;dashed=1;html=1;" parent="1" edge="1">
                    <mxGeometry width="50" height="50" relative="1" as="geometry">
                        <mxPoint x="327" y="360" as="sourcePoint"/>
                        <mxPoint x="404" y="82" as="targetPoint"/>
                    </mxGeometry>
                </mxCell>
                <mxCell id="559" value="" style="endArrow=none;dashed=1;html=1;" parent="1" edge="1">
                    <mxGeometry width="50" height="50" relative="1" as="geometry">
                        <mxPoint x="475" y="359" as="sourcePoint"/>
                        <mxPoint x="443" y="79" as="targetPoint"/>
                    </mxGeometry>
                </mxCell>
                <mxCell id="560" value="" style="endArrow=none;dashed=1;html=1;" parent="1" edge="1">
                    <mxGeometry width="50" height="50" relative="1" as="geometry">
                        <mxPoint x="503" y="360" as="sourcePoint"/>
                        <mxPoint x="404" y="86" as="targetPoint"/>
                    </mxGeometry>
                </mxCell>
                <mxCell id="561" value="" style="endArrow=none;dashed=1;html=1;" parent="1" edge="1">
                    <mxGeometry width="50" height="50" relative="1" as="geometry">
                        <mxPoint x="301" y="360" as="sourcePoint"/>
                        <mxPoint x="442" y="80" as="targetPoint"/>
                    </mxGeometry>
                </mxCell>
                <mxCell id="567" value="" style="endArrow=none;html=1;fillColor=#60a917;strokeColor=#2D7600;" parent="1" edge="1">
                    <mxGeometry width="50" height="50" relative="1" as="geometry">
                        <mxPoint x="327" y="360" as="sourcePoint"/>
                        <mxPoint x="475" y="360" as="targetPoint"/>
                    </mxGeometry>
                </mxCell>
                <mxCell id="568" value="" style="endArrow=none;html=1;fillColor=#d80073;strokeColor=#A50040;" parent="1" edge="1">
                    <mxGeometry width="50" height="50" relative="1" as="geometry">
                        <mxPoint x="475" y="360" as="sourcePoint"/>
                        <mxPoint x="503" y="360" as="targetPoint"/>
                    </mxGeometry>
                </mxCell>
                <mxCell id="569" value="" style="endArrow=none;html=1;fillColor=#d80073;strokeColor=#A50040;" parent="1" edge="1">
                    <mxGeometry width="50" height="50" relative="1" as="geometry">
                        <mxPoint x="301" y="360" as="sourcePoint"/>
                        <mxPoint x="327" y="360" as="targetPoint"/>
                    </mxGeometry>
                </mxCell>
                <mxCell id="570" value="umbra" style="text;html=1;strokeColor=none;fillColor=none;align=center;verticalAlign=middle;whiteSpace=wrap;rounded=0;fontColor=#2D7600;" parent="1" vertex="1">
                    <mxGeometry x="370" y="360" width="60" height="30" as="geometry"/>
                </mxCell>
                <mxCell id="571" value="penumbra" style="text;html=1;strokeColor=none;fillColor=none;align=center;verticalAlign=middle;whiteSpace=wrap;rounded=0;fontColor=#A50040;" parent="1" vertex="1">
                    <mxGeometry x="280" y="360" width="60" height="30" as="geometry"/>
                </mxCell>
                <mxCell id="572" value="penumbra" style="text;html=1;strokeColor=none;fillColor=none;align=center;verticalAlign=middle;whiteSpace=wrap;rounded=0;fontColor=#A50040;" parent="1" vertex="1">
                    <mxGeometry x="463" y="360" width="60" height="30" as="geometry"/>
                </mxCell>
                <mxCell id="573" value="occluder" style="text;html=1;strokeColor=none;fillColor=none;align=center;verticalAlign=middle;whiteSpace=wrap;rounded=0;fontColor=#F0F0F0;" parent="1" vertex="1">
                    <mxGeometry x="290" y="220" width="60" height="30" as="geometry"/>
                </mxCell>
                <mxCell id="574" value="receiver" style="text;html=1;strokeColor=none;fillColor=none;align=center;verticalAlign=middle;whiteSpace=wrap;rounded=0;fontColor=#F0F0F0;" parent="1" vertex="1">
                    <mxGeometry x="523" y="330" width="60" height="30" as="geometry"/>
                </mxCell>
                <mxCell id="575" value="light source" style="text;html=1;strokeColor=none;fillColor=none;align=center;verticalAlign=middle;whiteSpace=wrap;rounded=0;fontColor=#F0F0F0;" parent="1" vertex="1">
                    <mxGeometry x="370" y="50" width="100" height="30" as="geometry"/>
                </mxCell>
            </root>
        </mxGraphModel>
    </diagram>
    <diagram id="McSOs0wjPwL6ex9qZHHM" name="Page-2">
        <mxGraphModel dx="1004" dy="792" grid="0" gridSize="10" guides="1" tooltips="1" connect="1" arrows="1" fold="1" page="1" pageScale="1" pageWidth="850" pageHeight="1100" math="0" shadow="0">
            <root>
                <mxCell id="0"/>
                <mxCell id="1" parent="0"/>
                <mxCell id="2o2rnD-1jKrkJIKN3Nr4-1" value="" style="ellipse;whiteSpace=wrap;html=1;aspect=fixed;fontColor=#F0F0F0;" parent="1" vertex="1">
                    <mxGeometry x="320" y="280" width="80" height="80" as="geometry"/>
                </mxCell>
                <mxCell id="2o2rnD-1jKrkJIKN3Nr4-2" value="" style="endArrow=none;html=1;fontColor=#F0F0F0;" parent="1" edge="1">
                    <mxGeometry width="50" height="50" relative="1" as="geometry">
                        <mxPoint x="280" y="360" as="sourcePoint"/>
                        <mxPoint x="440" y="361" as="targetPoint"/>
                    </mxGeometry>
                </mxCell>
                <mxCell id="2o2rnD-1jKrkJIKN3Nr4-3" value="" style="endArrow=none;html=1;fontColor=#F0F0F0;" parent="1" edge="1">
                    <mxGeometry width="50" height="50" relative="1" as="geometry">
                        <mxPoint x="240" y="240" as="sourcePoint"/>
                        <mxPoint x="300" y="180" as="targetPoint"/>
                    </mxGeometry>
                </mxCell>
                <mxCell id="2o2rnD-1jKrkJIKN3Nr4-6" value="" style="endArrow=classic;html=1;fontColor=#F0F0F0;entryX=0.623;entryY=0.009;entryDx=0;entryDy=0;exitX=1;exitY=1;exitDx=0;exitDy=0;entryPerimeter=0;" parent="1" target="2o2rnD-1jKrkJIKN3Nr4-1" edge="1">
                    <mxGeometry width="50" height="50" relative="1" as="geometry">
                        <mxPoint x="238.53553390593288" y="168.53553390593277" as="sourcePoint"/>
                        <mxPoint x="374" y="282" as="targetPoint"/>
                    </mxGeometry>
                </mxCell>
                <mxCell id="2o2rnD-1jKrkJIKN3Nr4-7" value="" style="endArrow=classic;html=1;fontColor=#F0F0F0;exitX=1;exitY=1;exitDx=0;exitDy=0;entryX=0;entryY=0.375;entryDx=0;entryDy=0;entryPerimeter=0;" parent="1" target="2o2rnD-1jKrkJIKN3Nr4-1" edge="1">
                    <mxGeometry width="50" height="50" relative="1" as="geometry">
                        <mxPoint x="238.53553390593288" y="168.53553390593277" as="sourcePoint"/>
                        <mxPoint x="370" y="300" as="targetPoint"/>
                    </mxGeometry>
                </mxCell>
                <mxCell id="2o2rnD-1jKrkJIKN3Nr4-8" value="" style="endArrow=classic;html=1;fontColor=#F0F0F0;exitX=1;exitY=1;exitDx=0;exitDy=0;" parent="1" target="2o2rnD-1jKrkJIKN3Nr4-1" edge="1">
                    <mxGeometry width="50" height="50" relative="1" as="geometry">
                        <mxPoint x="238.53553390593288" y="168.53553390593277" as="sourcePoint"/>
                        <mxPoint x="270" y="90" as="targetPoint"/>
                    </mxGeometry>
                </mxCell>
                <mxCell id="2o2rnD-1jKrkJIKN3Nr4-9" value="" style="endArrow=classic;html=1;fontColor=#F0F0F0;exitX=1;exitY=1;exitDx=0;exitDy=0;" parent="1" edge="1">
                    <mxGeometry width="50" height="50" relative="1" as="geometry">
                        <mxPoint x="238.53553390593288" y="168.53553390593277" as="sourcePoint"/>
                        <mxPoint x="320" y="360" as="targetPoint"/>
                    </mxGeometry>
                </mxCell>
                <mxCell id="2o2rnD-1jKrkJIKN3Nr4-10" value="shadow map" style="text;html=1;strokeColor=none;fillColor=none;align=center;verticalAlign=middle;whiteSpace=wrap;rounded=0;fontColor=#F0F0F0;" parent="1" vertex="1">
                    <mxGeometry x="280" y="160" width="90" height="30" as="geometry"/>
                </mxCell>
                <mxCell id="2o2rnD-1jKrkJIKN3Nr4-11" value="light" style="text;html=1;strokeColor=none;fillColor=none;align=center;verticalAlign=middle;whiteSpace=wrap;rounded=0;fontColor=#F0F0F0;" parent="1" vertex="1">
                    <mxGeometry x="190" y="150" width="60" height="30" as="geometry"/>
                </mxCell>
                <mxCell id="2o2rnD-1jKrkJIKN3Nr4-12" value="" style="ellipse;whiteSpace=wrap;html=1;aspect=fixed;fontColor=#F0F0F0;" parent="1" vertex="1">
                    <mxGeometry x="570" y="280" width="80" height="80" as="geometry"/>
                </mxCell>
                <mxCell id="2o2rnD-1jKrkJIKN3Nr4-13" value="" style="endArrow=none;html=1;fontColor=#F0F0F0;" parent="1" edge="1">
                    <mxGeometry width="50" height="50" relative="1" as="geometry">
                        <mxPoint x="530" y="360" as="sourcePoint"/>
                        <mxPoint x="690" y="361" as="targetPoint"/>
                    </mxGeometry>
                </mxCell>
                <mxCell id="2o2rnD-1jKrkJIKN3Nr4-14" value="" style="endArrow=none;html=1;fontColor=#F0F0F0;" parent="1" edge="1">
                    <mxGeometry width="50" height="50" relative="1" as="geometry">
                        <mxPoint x="490" y="240" as="sourcePoint"/>
                        <mxPoint x="550" y="180" as="targetPoint"/>
                    </mxGeometry>
                </mxCell>
                <mxCell id="2o2rnD-1jKrkJIKN3Nr4-20" value="shadow map" style="text;html=1;strokeColor=none;fillColor=none;align=center;verticalAlign=middle;whiteSpace=wrap;rounded=0;fontColor=#F0F0F0;" parent="1" vertex="1">
                    <mxGeometry x="520" y="160" width="90" height="30" as="geometry"/>
                </mxCell>
                <mxCell id="2o2rnD-1jKrkJIKN3Nr4-21" value="" style="endArrow=classic;html=1;fontColor=#F0F0F0;entryX=0.587;entryY=0.007;entryDx=0;entryDy=0;entryPerimeter=0;" parent="1" target="2o2rnD-1jKrkJIKN3Nr4-12" edge="1">
                    <mxGeometry width="50" height="50" relative="1" as="geometry">
                        <mxPoint x="680" y="160" as="sourcePoint"/>
                        <mxPoint x="550" y="160" as="targetPoint"/>
                    </mxGeometry>
                </mxCell>
                <mxCell id="2o2rnD-1jKrkJIKN3Nr4-22" value="" style="endArrow=classic;html=1;fontColor=#F0F0F0;" parent="1" edge="1">
                    <mxGeometry width="50" height="50" relative="1" as="geometry">
                        <mxPoint x="680" y="160" as="sourcePoint"/>
                        <mxPoint x="650" y="360" as="targetPoint"/>
                    </mxGeometry>
                </mxCell>
                <mxCell id="2o2rnD-1jKrkJIKN3Nr4-24" value="" style="endArrow=classic;html=1;fontColor=#F0F0F0;exitX=0.592;exitY=0.01;exitDx=0;exitDy=0;exitPerimeter=0;" parent="1" source="2o2rnD-1jKrkJIKN3Nr4-12" edge="1">
                    <mxGeometry width="50" height="50" relative="1" as="geometry">
                        <mxPoint x="490" y="210" as="sourcePoint"/>
                        <mxPoint x="531" y="199" as="targetPoint"/>
                    </mxGeometry>
                </mxCell>
                <mxCell id="2o2rnD-1jKrkJIKN3Nr4-26" value="" style="endArrow=none;dashed=1;html=1;fontColor=#F0F0F0;" parent="1" edge="1">
                    <mxGeometry width="50" height="50" relative="1" as="geometry">
                        <mxPoint x="531" y="199" as="sourcePoint"/>
                        <mxPoint x="500" y="170" as="targetPoint"/>
                    </mxGeometry>
                </mxCell>
                <mxCell id="2o2rnD-1jKrkJIKN3Nr4-27" value="" style="endArrow=none;dashed=1;html=1;fontColor=#F0F0F0;" parent="1" edge="1">
                    <mxGeometry width="50" height="50" relative="1" as="geometry">
                        <mxPoint x="527" y="204" as="sourcePoint"/>
                        <mxPoint x="500" y="170" as="targetPoint"/>
                    </mxGeometry>
                </mxCell>
                <mxCell id="2o2rnD-1jKrkJIKN3Nr4-28" value="" style="endArrow=classic;html=1;fontColor=#F0F0F0;" parent="1" edge="1">
                    <mxGeometry width="50" height="50" relative="1" as="geometry">
                        <mxPoint x="650" y="360" as="sourcePoint"/>
                        <mxPoint x="527" y="204" as="targetPoint"/>
                    </mxGeometry>
                </mxCell>
                <mxCell id="2o2rnD-1jKrkJIKN3Nr4-29" value="light" style="text;html=1;strokeColor=none;fillColor=none;align=center;verticalAlign=middle;whiteSpace=wrap;rounded=0;fontColor=#F0F0F0;" parent="1" vertex="1">
                    <mxGeometry x="450" y="150" width="60" height="30" as="geometry"/>
                </mxCell>
                <mxCell id="2o2rnD-1jKrkJIKN3Nr4-30" value="eye" style="text;html=1;strokeColor=none;fillColor=none;align=center;verticalAlign=middle;whiteSpace=wrap;rounded=0;fontColor=#F0F0F0;" parent="1" vertex="1">
                    <mxGeometry x="670" y="140" width="60" height="30" as="geometry"/>
                </mxCell>
            </root>
        </mxGraphModel>
    </diagram>
    <diagram id="-VqQkv6AFC7re0C-Vswi" name="Page-3">
        <mxGraphModel dx="692" dy="546" grid="0" gridSize="10" guides="1" tooltips="1" connect="1" arrows="1" fold="1" page="1" pageScale="1" pageWidth="850" pageHeight="1100" math="0" shadow="0">
            <root>
                <mxCell id="0"/>
                <mxCell id="1" parent="0"/>
                <mxCell id="tNh6LcQ1jeMBYhsbrOhF-142" value="" style="rounded=0;whiteSpace=wrap;html=1;fontSize=6;fillColor=none;dashed=1;fontColor=#ffffff;strokeColor=#6F0000;" parent="1" vertex="1">
                    <mxGeometry x="460" y="780" width="40" height="40" as="geometry"/>
                </mxCell>
                <mxCell id="tNh6LcQ1jeMBYhsbrOhF-141" value="" style="rounded=0;whiteSpace=wrap;html=1;fontSize=6;fillColor=none;dashed=1;fontColor=#ffffff;strokeColor=#6F0000;" parent="1" vertex="1">
                    <mxGeometry x="340" y="900" width="40" height="50" as="geometry"/>
                </mxCell>
                <mxCell id="tNh6LcQ1jeMBYhsbrOhF-157" value="" style="rounded=0;whiteSpace=wrap;html=1;fontSize=10;fillColor=none;" parent="1" vertex="1">
                    <mxGeometry x="160" y="750" width="520" height="300" as="geometry"/>
                </mxCell>
                <mxCell id="tNh6LcQ1jeMBYhsbrOhF-61" value="" style="rounded=0;whiteSpace=wrap;html=1;fontSize=6;fillColor=none;dashed=1;fontColor=#ffffff;strokeColor=#6F0000;" parent="1" vertex="1">
                    <mxGeometry x="340" y="170" width="40" height="50" as="geometry"/>
                </mxCell>
                <mxCell id="tNh6LcQ1jeMBYhsbrOhF-81" value="" style="rounded=0;whiteSpace=wrap;html=1;fontSize=10;fillColor=none;" parent="1" vertex="1">
                    <mxGeometry x="160" y="20" width="520" height="300" as="geometry"/>
                </mxCell>
                <mxCell id="tNh6LcQ1jeMBYhsbrOhF-104" value="" style="rounded=0;whiteSpace=wrap;html=1;fontSize=6;fillColor=none;dashed=1;fontColor=#ffffff;strokeColor=#6F0000;" parent="1" vertex="1">
                    <mxGeometry x="460" y="420" width="40" height="40" as="geometry"/>
                </mxCell>
                <mxCell id="tNh6LcQ1jeMBYhsbrOhF-103" value="" style="rounded=0;whiteSpace=wrap;html=1;fontSize=6;fillColor=none;dashed=1;fontColor=#ffffff;strokeColor=#6F0000;" parent="1" vertex="1">
                    <mxGeometry x="340" y="540" width="40" height="50" as="geometry"/>
                </mxCell>
                <mxCell id="tNh6LcQ1jeMBYhsbrOhF-119" value="" style="rounded=0;whiteSpace=wrap;html=1;fontSize=10;fillColor=none;" parent="1" vertex="1">
                    <mxGeometry x="160" y="390" width="520" height="300" as="geometry"/>
                </mxCell>
                <mxCell id="tNh6LcQ1jeMBYhsbrOhF-60" value="" style="rounded=0;whiteSpace=wrap;html=1;fontSize=6;fillColor=none;dashed=1;fontColor=#ffffff;strokeColor=#6F0000;" parent="1" vertex="1">
                    <mxGeometry x="260" y="212" width="40" height="28" as="geometry"/>
                </mxCell>
                <mxCell id="tNh6LcQ1jeMBYhsbrOhF-1" value="" style="endArrow=none;html=1;startArrow=none;" parent="1" edge="1">
                    <mxGeometry width="50" height="50" relative="1" as="geometry">
                        <mxPoint x="240" y="190" as="sourcePoint"/>
                        <mxPoint x="320" y="270" as="targetPoint"/>
                    </mxGeometry>
                </mxCell>
                <mxCell id="tNh6LcQ1jeMBYhsbrOhF-2" value="" style="endArrow=none;html=1;" parent="1" edge="1">
                    <mxGeometry width="50" height="50" relative="1" as="geometry">
                        <mxPoint x="320" y="270" as="sourcePoint"/>
                        <mxPoint x="400" y="110" as="targetPoint"/>
                    </mxGeometry>
                </mxCell>
                <mxCell id="tNh6LcQ1jeMBYhsbrOhF-3" value="" style="endArrow=none;html=1;" parent="1" edge="1">
                    <mxGeometry width="50" height="50" relative="1" as="geometry">
                        <mxPoint x="400" y="110" as="sourcePoint"/>
                        <mxPoint x="480" y="70" as="targetPoint"/>
                    </mxGeometry>
                </mxCell>
                <mxCell id="tNh6LcQ1jeMBYhsbrOhF-4" value="" style="endArrow=none;dashed=1;html=1;" parent="1" edge="1">
                    <mxGeometry width="50" height="50" relative="1" as="geometry">
                        <mxPoint x="240" y="310" as="sourcePoint"/>
                        <mxPoint x="240" y="30" as="targetPoint"/>
                    </mxGeometry>
                </mxCell>
                <mxCell id="tNh6LcQ1jeMBYhsbrOhF-5" value="" style="endArrow=none;dashed=1;html=1;" parent="1" edge="1">
                    <mxGeometry width="50" height="50" relative="1" as="geometry">
                        <mxPoint x="280" y="310" as="sourcePoint"/>
                        <mxPoint x="280" y="30" as="targetPoint"/>
                    </mxGeometry>
                </mxCell>
                <mxCell id="tNh6LcQ1jeMBYhsbrOhF-6" value="" style="endArrow=none;dashed=1;html=1;" parent="1" edge="1">
                    <mxGeometry width="50" height="50" relative="1" as="geometry">
                        <mxPoint x="320" y="310" as="sourcePoint"/>
                        <mxPoint x="320" y="30" as="targetPoint"/>
                    </mxGeometry>
                </mxCell>
                <mxCell id="tNh6LcQ1jeMBYhsbrOhF-7" value="" style="endArrow=none;dashed=1;html=1;" parent="1" edge="1">
                    <mxGeometry width="50" height="50" relative="1" as="geometry">
                        <mxPoint x="360" y="310" as="sourcePoint"/>
                        <mxPoint x="360" y="30" as="targetPoint"/>
                    </mxGeometry>
                </mxCell>
                <mxCell id="tNh6LcQ1jeMBYhsbrOhF-8" value="" style="endArrow=none;dashed=1;html=1;" parent="1" edge="1">
                    <mxGeometry width="50" height="50" relative="1" as="geometry">
                        <mxPoint x="400" y="310" as="sourcePoint"/>
                        <mxPoint x="400" y="30" as="targetPoint"/>
                    </mxGeometry>
                </mxCell>
                <mxCell id="tNh6LcQ1jeMBYhsbrOhF-9" value="" style="endArrow=none;dashed=1;html=1;" parent="1" edge="1">
                    <mxGeometry width="50" height="50" relative="1" as="geometry">
                        <mxPoint x="440" y="310" as="sourcePoint"/>
                        <mxPoint x="440" y="30" as="targetPoint"/>
                    </mxGeometry>
                </mxCell>
                <mxCell id="tNh6LcQ1jeMBYhsbrOhF-10" value="" style="endArrow=none;dashed=1;html=1;" parent="1" edge="1">
                    <mxGeometry width="50" height="50" relative="1" as="geometry">
                        <mxPoint x="480" y="310" as="sourcePoint"/>
                        <mxPoint x="480" y="30" as="targetPoint"/>
                    </mxGeometry>
                </mxCell>
                <mxCell id="tNh6LcQ1jeMBYhsbrOhF-45" value="" style="ellipse;whiteSpace=wrap;html=1;aspect=fixed;" parent="1" vertex="1">
                    <mxGeometry x="478" y="68" width="4" height="4" as="geometry"/>
                </mxCell>
                <mxCell id="tNh6LcQ1jeMBYhsbrOhF-47" value="" style="ellipse;whiteSpace=wrap;html=1;aspect=fixed;" parent="1" vertex="1">
                    <mxGeometry x="438" y="88" width="4" height="4" as="geometry"/>
                </mxCell>
                <mxCell id="tNh6LcQ1jeMBYhsbrOhF-49" value="" style="ellipse;whiteSpace=wrap;html=1;aspect=fixed;" parent="1" vertex="1">
                    <mxGeometry x="398" y="108" width="4" height="4" as="geometry"/>
                </mxCell>
                <mxCell id="tNh6LcQ1jeMBYhsbrOhF-50" value="" style="ellipse;whiteSpace=wrap;html=1;aspect=fixed;" parent="1" vertex="1">
                    <mxGeometry x="358" y="188" width="4" height="4" as="geometry"/>
                </mxCell>
                <mxCell id="tNh6LcQ1jeMBYhsbrOhF-51" value="" style="ellipse;whiteSpace=wrap;html=1;aspect=fixed;" parent="1" vertex="1">
                    <mxGeometry x="318" y="268" width="4" height="4" as="geometry"/>
                </mxCell>
                <mxCell id="tNh6LcQ1jeMBYhsbrOhF-52" value="" style="ellipse;whiteSpace=wrap;html=1;aspect=fixed;" parent="1" vertex="1">
                    <mxGeometry x="278" y="228" width="4" height="4" as="geometry"/>
                </mxCell>
                <mxCell id="tNh6LcQ1jeMBYhsbrOhF-53" value="" style="ellipse;whiteSpace=wrap;html=1;aspect=fixed;" parent="1" vertex="1">
                    <mxGeometry x="238" y="188" width="4" height="4" as="geometry"/>
                </mxCell>
                <mxCell id="tNh6LcQ1jeMBYhsbrOhF-54" value="" style="ellipse;whiteSpace=wrap;html=1;aspect=fixed;fillColor=#F0F0F0;" parent="1" vertex="1">
                    <mxGeometry x="268" y="218" width="4" height="4" as="geometry"/>
                </mxCell>
                <mxCell id="tNh6LcQ1jeMBYhsbrOhF-55" value="" style="ellipse;whiteSpace=wrap;html=1;aspect=fixed;fillColor=#F0F0F0;" parent="1" vertex="1">
                    <mxGeometry x="348" y="208" width="4" height="4" as="geometry"/>
                </mxCell>
                <mxCell id="tNh6LcQ1jeMBYhsbrOhF-56" value="" style="ellipse;whiteSpace=wrap;html=1;aspect=fixed;fillColor=#F0F0F0;" parent="1" vertex="1">
                    <mxGeometry x="464" y="75" width="4" height="4" as="geometry"/>
                </mxCell>
                <mxCell id="tNh6LcQ1jeMBYhsbrOhF-62" value="" style="rounded=0;whiteSpace=wrap;html=1;fontSize=6;fillColor=none;dashed=1;fontColor=#ffffff;strokeColor=#6F0000;" parent="1" vertex="1">
                    <mxGeometry x="460" y="50" width="40" height="40" as="geometry"/>
                </mxCell>
                <mxCell id="tNh6LcQ1jeMBYhsbrOhF-63" value="1" style="text;html=1;strokeColor=none;fillColor=none;align=center;verticalAlign=middle;whiteSpace=wrap;rounded=0;dashed=1;fontSize=6;" parent="1" vertex="1">
                    <mxGeometry x="262" y="240" width="20" height="10" as="geometry"/>
                </mxCell>
                <mxCell id="tNh6LcQ1jeMBYhsbrOhF-65" value="2" style="text;html=1;strokeColor=none;fillColor=none;align=center;verticalAlign=middle;whiteSpace=wrap;rounded=0;dashed=1;fontSize=6;" parent="1" vertex="1">
                    <mxGeometry x="358" y="220" width="20" height="10" as="geometry"/>
                </mxCell>
                <mxCell id="tNh6LcQ1jeMBYhsbrOhF-66" value="3" style="text;html=1;strokeColor=none;fillColor=none;align=center;verticalAlign=middle;whiteSpace=wrap;rounded=0;dashed=1;fontSize=6;" parent="1" vertex="1">
                    <mxGeometry x="480" y="92" width="20" height="10" as="geometry"/>
                </mxCell>
                <mxCell id="tNh6LcQ1jeMBYhsbrOhF-67" value="" style="endArrow=none;dashed=1;html=1;" parent="1" edge="1">
                    <mxGeometry width="50" height="50" relative="1" as="geometry">
                        <mxPoint x="555" y="165" as="sourcePoint"/>
                        <mxPoint x="555" y="145" as="targetPoint"/>
                    </mxGeometry>
                </mxCell>
                <mxCell id="tNh6LcQ1jeMBYhsbrOhF-68" value="阴影图的像素中心" style="text;html=1;strokeColor=none;fillColor=none;align=left;verticalAlign=middle;whiteSpace=wrap;rounded=0;dashed=1;fontSize=10;" parent="1" vertex="1">
                    <mxGeometry x="570" y="140" width="90" height="30" as="geometry"/>
                </mxCell>
                <mxCell id="tNh6LcQ1jeMBYhsbrOhF-69" value="" style="ellipse;whiteSpace=wrap;html=1;aspect=fixed;" parent="1" vertex="1">
                    <mxGeometry x="553" y="183" width="4" height="4" as="geometry"/>
                </mxCell>
                <mxCell id="tNh6LcQ1jeMBYhsbrOhF-70" value="阴影图的采样点" style="text;html=1;strokeColor=none;fillColor=none;align=left;verticalAlign=middle;whiteSpace=wrap;rounded=0;dashed=1;fontSize=10;" parent="1" vertex="1">
                    <mxGeometry x="570" y="170" width="90" height="30" as="geometry"/>
                </mxCell>
                <mxCell id="tNh6LcQ1jeMBYhsbrOhF-71" value="" style="ellipse;whiteSpace=wrap;html=1;aspect=fixed;fillColor=#F0F0F0;" parent="1" vertex="1">
                    <mxGeometry x="553" y="210" width="4" height="4" as="geometry"/>
                </mxCell>
                <mxCell id="tNh6LcQ1jeMBYhsbrOhF-72" value="观察视角物体采样点" style="text;html=1;strokeColor=none;fillColor=none;align=left;verticalAlign=middle;whiteSpace=wrap;rounded=0;dashed=1;fontSize=10;" parent="1" vertex="1">
                    <mxGeometry x="570" y="200" width="100" height="30" as="geometry"/>
                </mxCell>
                <mxCell id="tNh6LcQ1jeMBYhsbrOhF-75" value="" style="endArrow=none;html=1;fontSize=10;" parent="1" edge="1">
                    <mxGeometry width="50" height="50" relative="1" as="geometry">
                        <mxPoint x="550" y="105" as="sourcePoint"/>
                        <mxPoint x="560" y="85" as="targetPoint"/>
                    </mxGeometry>
                </mxCell>
                <mxCell id="tNh6LcQ1jeMBYhsbrOhF-76" value="物体表面" style="text;html=1;strokeColor=none;fillColor=none;align=left;verticalAlign=middle;whiteSpace=wrap;rounded=0;dashed=1;fontSize=10;" parent="1" vertex="1">
                    <mxGeometry x="570" y="80" width="90" height="30" as="geometry"/>
                </mxCell>
                <mxCell id="tNh6LcQ1jeMBYhsbrOhF-77" value="" style="endArrow=classic;html=1;fontSize=10;" parent="1" edge="1">
                    <mxGeometry width="50" height="50" relative="1" as="geometry">
                        <mxPoint x="200" y="30" as="sourcePoint"/>
                        <mxPoint x="200" y="110" as="targetPoint"/>
                    </mxGeometry>
                </mxCell>
                <mxCell id="tNh6LcQ1jeMBYhsbrOhF-78" value="光源方向" style="text;html=1;strokeColor=none;fillColor=none;align=left;verticalAlign=middle;whiteSpace=wrap;rounded=0;dashed=1;fontSize=10;" parent="1" vertex="1">
                    <mxGeometry x="570" y="110" width="90" height="30" as="geometry"/>
                </mxCell>
                <mxCell id="tNh6LcQ1jeMBYhsbrOhF-79" value="" style="endArrow=classic;html=1;fontSize=10;" parent="1" edge="1">
                    <mxGeometry width="50" height="50" relative="1" as="geometry">
                        <mxPoint x="555" y="115" as="sourcePoint"/>
                        <mxPoint x="555" y="135" as="targetPoint"/>
                    </mxGeometry>
                </mxCell>
                <mxCell id="tNh6LcQ1jeMBYhsbrOhF-82" value="" style="rounded=0;whiteSpace=wrap;html=1;fontSize=6;fillColor=none;dashed=1;fontColor=#ffffff;strokeColor=#6F0000;" parent="1" vertex="1">
                    <mxGeometry x="260" y="570" width="40" height="40" as="geometry"/>
                </mxCell>
                <mxCell id="tNh6LcQ1jeMBYhsbrOhF-83" value="" style="endArrow=none;html=1;startArrow=none;" parent="1" source="tNh6LcQ1jeMBYhsbrOhF-160" edge="1">
                    <mxGeometry width="50" height="50" relative="1" as="geometry">
                        <mxPoint x="240" y="560" as="sourcePoint"/>
                        <mxPoint x="320" y="640" as="targetPoint"/>
                    </mxGeometry>
                </mxCell>
                <mxCell id="tNh6LcQ1jeMBYhsbrOhF-84" value="" style="endArrow=none;html=1;" parent="1" edge="1">
                    <mxGeometry width="50" height="50" relative="1" as="geometry">
                        <mxPoint x="320" y="640" as="sourcePoint"/>
                        <mxPoint x="400" y="480" as="targetPoint"/>
                    </mxGeometry>
                </mxCell>
                <mxCell id="tNh6LcQ1jeMBYhsbrOhF-85" value="" style="endArrow=none;html=1;" parent="1" edge="1">
                    <mxGeometry width="50" height="50" relative="1" as="geometry">
                        <mxPoint x="400" y="480" as="sourcePoint"/>
                        <mxPoint x="480" y="440" as="targetPoint"/>
                    </mxGeometry>
                </mxCell>
                <mxCell id="tNh6LcQ1jeMBYhsbrOhF-86" value="" style="endArrow=none;dashed=1;html=1;" parent="1" edge="1">
                    <mxGeometry width="50" height="50" relative="1" as="geometry">
                        <mxPoint x="240" y="680" as="sourcePoint"/>
                        <mxPoint x="240" y="400" as="targetPoint"/>
                    </mxGeometry>
                </mxCell>
                <mxCell id="tNh6LcQ1jeMBYhsbrOhF-87" value="" style="endArrow=none;dashed=1;html=1;" parent="1" edge="1">
                    <mxGeometry width="50" height="50" relative="1" as="geometry">
                        <mxPoint x="280" y="680" as="sourcePoint"/>
                        <mxPoint x="280" y="400" as="targetPoint"/>
                    </mxGeometry>
                </mxCell>
                <mxCell id="tNh6LcQ1jeMBYhsbrOhF-88" value="" style="endArrow=none;dashed=1;html=1;" parent="1" edge="1">
                    <mxGeometry width="50" height="50" relative="1" as="geometry">
                        <mxPoint x="320" y="680" as="sourcePoint"/>
                        <mxPoint x="320" y="400" as="targetPoint"/>
                    </mxGeometry>
                </mxCell>
                <mxCell id="tNh6LcQ1jeMBYhsbrOhF-89" value="" style="endArrow=none;dashed=1;html=1;" parent="1" edge="1">
                    <mxGeometry width="50" height="50" relative="1" as="geometry">
                        <mxPoint x="360" y="680" as="sourcePoint"/>
                        <mxPoint x="360" y="400" as="targetPoint"/>
                    </mxGeometry>
                </mxCell>
                <mxCell id="tNh6LcQ1jeMBYhsbrOhF-90" value="" style="endArrow=none;dashed=1;html=1;" parent="1" edge="1">
                    <mxGeometry width="50" height="50" relative="1" as="geometry">
                        <mxPoint x="400" y="680" as="sourcePoint"/>
                        <mxPoint x="400" y="400" as="targetPoint"/>
                    </mxGeometry>
                </mxCell>
                <mxCell id="tNh6LcQ1jeMBYhsbrOhF-91" value="" style="endArrow=none;dashed=1;html=1;" parent="1" edge="1">
                    <mxGeometry width="50" height="50" relative="1" as="geometry">
                        <mxPoint x="440" y="680" as="sourcePoint"/>
                        <mxPoint x="440" y="400" as="targetPoint"/>
                    </mxGeometry>
                </mxCell>
                <mxCell id="tNh6LcQ1jeMBYhsbrOhF-92" value="" style="endArrow=none;dashed=1;html=1;" parent="1" edge="1">
                    <mxGeometry width="50" height="50" relative="1" as="geometry">
                        <mxPoint x="480" y="680" as="sourcePoint"/>
                        <mxPoint x="480" y="400" as="targetPoint"/>
                    </mxGeometry>
                </mxCell>
                <mxCell id="tNh6LcQ1jeMBYhsbrOhF-93" value="" style="ellipse;whiteSpace=wrap;html=1;aspect=fixed;" parent="1" vertex="1">
                    <mxGeometry x="478" y="438" width="4" height="4" as="geometry"/>
                </mxCell>
                <mxCell id="tNh6LcQ1jeMBYhsbrOhF-94" value="" style="ellipse;whiteSpace=wrap;html=1;aspect=fixed;" parent="1" vertex="1">
                    <mxGeometry x="438" y="458" width="4" height="4" as="geometry"/>
                </mxCell>
                <mxCell id="tNh6LcQ1jeMBYhsbrOhF-95" value="" style="ellipse;whiteSpace=wrap;html=1;aspect=fixed;" parent="1" vertex="1">
                    <mxGeometry x="398" y="478" width="4" height="4" as="geometry"/>
                </mxCell>
                <mxCell id="tNh6LcQ1jeMBYhsbrOhF-96" value="" style="ellipse;whiteSpace=wrap;html=1;aspect=fixed;" parent="1" vertex="1">
                    <mxGeometry x="358" y="558" width="4" height="4" as="geometry"/>
                </mxCell>
                <mxCell id="tNh6LcQ1jeMBYhsbrOhF-97" value="" style="ellipse;whiteSpace=wrap;html=1;aspect=fixed;" parent="1" vertex="1">
                    <mxGeometry x="318" y="638" width="4" height="4" as="geometry"/>
                </mxCell>
                <mxCell id="tNh6LcQ1jeMBYhsbrOhF-98" value="" style="ellipse;whiteSpace=wrap;html=1;aspect=fixed;" parent="1" vertex="1">
                    <mxGeometry x="278" y="598" width="4" height="4" as="geometry"/>
                </mxCell>
                <mxCell id="tNh6LcQ1jeMBYhsbrOhF-99" value="" style="ellipse;whiteSpace=wrap;html=1;aspect=fixed;" parent="1" vertex="1">
                    <mxGeometry x="238" y="558" width="4" height="4" as="geometry"/>
                </mxCell>
                <mxCell id="tNh6LcQ1jeMBYhsbrOhF-100" value="" style="ellipse;whiteSpace=wrap;html=1;aspect=fixed;fillColor=#a20025;fontColor=#ffffff;strokeColor=#6F0000;" parent="1" vertex="1">
                    <mxGeometry x="268" y="578" width="4" height="4" as="geometry"/>
                </mxCell>
                <mxCell id="tNh6LcQ1jeMBYhsbrOhF-101" value="" style="ellipse;whiteSpace=wrap;html=1;aspect=fixed;fillColor=#a20025;fontColor=#ffffff;strokeColor=#6F0000;" parent="1" vertex="1">
                    <mxGeometry x="348" y="568" width="4" height="4" as="geometry"/>
                </mxCell>
                <mxCell id="tNh6LcQ1jeMBYhsbrOhF-102" value="" style="ellipse;whiteSpace=wrap;html=1;aspect=fixed;fillColor=#a20025;fontColor=#ffffff;strokeColor=#6F0000;" parent="1" vertex="1">
                    <mxGeometry x="464" y="436" width="4" height="4" as="geometry"/>
                </mxCell>
                <mxCell id="tNh6LcQ1jeMBYhsbrOhF-105" value="1" style="text;html=1;strokeColor=none;fillColor=none;align=center;verticalAlign=middle;whiteSpace=wrap;rounded=0;dashed=1;fontSize=6;" parent="1" vertex="1">
                    <mxGeometry x="262" y="610" width="20" height="10" as="geometry"/>
                </mxCell>
                <mxCell id="tNh6LcQ1jeMBYhsbrOhF-106" value="2" style="text;html=1;strokeColor=none;fillColor=none;align=center;verticalAlign=middle;whiteSpace=wrap;rounded=0;dashed=1;fontSize=6;" parent="1" vertex="1">
                    <mxGeometry x="358" y="590" width="20" height="10" as="geometry"/>
                </mxCell>
                <mxCell id="tNh6LcQ1jeMBYhsbrOhF-107" value="3" style="text;html=1;strokeColor=none;fillColor=none;align=center;verticalAlign=middle;whiteSpace=wrap;rounded=0;dashed=1;fontSize=6;" parent="1" vertex="1">
                    <mxGeometry x="480" y="462" width="20" height="10" as="geometry"/>
                </mxCell>
                <mxCell id="tNh6LcQ1jeMBYhsbrOhF-108" value="" style="endArrow=none;dashed=1;html=1;" parent="1" edge="1">
                    <mxGeometry width="50" height="50" relative="1" as="geometry">
                        <mxPoint x="555" y="535" as="sourcePoint"/>
                        <mxPoint x="555" y="515" as="targetPoint"/>
                    </mxGeometry>
                </mxCell>
                <mxCell id="tNh6LcQ1jeMBYhsbrOhF-109" value="阴影图的像素中心" style="text;html=1;strokeColor=none;fillColor=none;align=left;verticalAlign=middle;whiteSpace=wrap;rounded=0;dashed=1;fontSize=10;" parent="1" vertex="1">
                    <mxGeometry x="570" y="510" width="90" height="30" as="geometry"/>
                </mxCell>
                <mxCell id="tNh6LcQ1jeMBYhsbrOhF-110" value="" style="ellipse;whiteSpace=wrap;html=1;aspect=fixed;" parent="1" vertex="1">
                    <mxGeometry x="553" y="553" width="4" height="4" as="geometry"/>
                </mxCell>
                <mxCell id="tNh6LcQ1jeMBYhsbrOhF-111" value="阴影图的采样点" style="text;html=1;strokeColor=none;fillColor=none;align=left;verticalAlign=middle;whiteSpace=wrap;rounded=0;dashed=1;fontSize=10;" parent="1" vertex="1">
                    <mxGeometry x="570" y="540" width="90" height="30" as="geometry"/>
                </mxCell>
                <mxCell id="tNh6LcQ1jeMBYhsbrOhF-112" value="" style="ellipse;whiteSpace=wrap;html=1;aspect=fixed;fillColor=#F0F0F0;" parent="1" vertex="1">
                    <mxGeometry x="553" y="580" width="4" height="4" as="geometry"/>
                </mxCell>
                <mxCell id="tNh6LcQ1jeMBYhsbrOhF-113" value="原观察视角物体采样点" style="text;html=1;strokeColor=none;fillColor=none;align=left;verticalAlign=middle;whiteSpace=wrap;rounded=0;dashed=1;fontSize=10;" parent="1" vertex="1">
                    <mxGeometry x="570" y="570" width="110" height="30" as="geometry"/>
                </mxCell>
                <mxCell id="tNh6LcQ1jeMBYhsbrOhF-114" value="" style="endArrow=none;html=1;fontSize=10;" parent="1" edge="1">
                    <mxGeometry width="50" height="50" relative="1" as="geometry">
                        <mxPoint x="550" y="475" as="sourcePoint"/>
                        <mxPoint x="560" y="455" as="targetPoint"/>
                    </mxGeometry>
                </mxCell>
                <mxCell id="tNh6LcQ1jeMBYhsbrOhF-115" value="物体表面" style="text;html=1;strokeColor=none;fillColor=none;align=left;verticalAlign=middle;whiteSpace=wrap;rounded=0;dashed=1;fontSize=10;" parent="1" vertex="1">
                    <mxGeometry x="570" y="450" width="90" height="30" as="geometry"/>
                </mxCell>
                <mxCell id="tNh6LcQ1jeMBYhsbrOhF-116" value="" style="endArrow=classic;html=1;fontSize=10;" parent="1" edge="1">
                    <mxGeometry width="50" height="50" relative="1" as="geometry">
                        <mxPoint x="200" y="400" as="sourcePoint"/>
                        <mxPoint x="200" y="480" as="targetPoint"/>
                    </mxGeometry>
                </mxCell>
                <mxCell id="tNh6LcQ1jeMBYhsbrOhF-117" value="光源方向" style="text;html=1;strokeColor=none;fillColor=none;align=left;verticalAlign=middle;whiteSpace=wrap;rounded=0;dashed=1;fontSize=10;" parent="1" vertex="1">
                    <mxGeometry x="570" y="480" width="90" height="30" as="geometry"/>
                </mxCell>
                <mxCell id="tNh6LcQ1jeMBYhsbrOhF-118" value="" style="endArrow=classic;html=1;fontSize=10;" parent="1" edge="1">
                    <mxGeometry width="50" height="50" relative="1" as="geometry">
                        <mxPoint x="555" y="485" as="sourcePoint"/>
                        <mxPoint x="555" y="505" as="targetPoint"/>
                    </mxGeometry>
                </mxCell>
                <mxCell id="tNh6LcQ1jeMBYhsbrOhF-120" value="" style="rounded=0;whiteSpace=wrap;html=1;fontSize=6;fillColor=none;dashed=1;fontColor=#ffffff;strokeColor=#6F0000;" parent="1" vertex="1">
                    <mxGeometry x="260" y="942" width="40" height="48" as="geometry"/>
                </mxCell>
                <mxCell id="tNh6LcQ1jeMBYhsbrOhF-121" value="" style="endArrow=none;html=1;startArrow=none;" parent="1" edge="1">
                    <mxGeometry width="50" height="50" relative="1" as="geometry">
                        <mxPoint x="240" y="920" as="sourcePoint"/>
                        <mxPoint x="320" y="1000" as="targetPoint"/>
                    </mxGeometry>
                </mxCell>
                <mxCell id="tNh6LcQ1jeMBYhsbrOhF-122" value="" style="endArrow=none;html=1;" parent="1" edge="1">
                    <mxGeometry width="50" height="50" relative="1" as="geometry">
                        <mxPoint x="320" y="1000" as="sourcePoint"/>
                        <mxPoint x="400" y="840" as="targetPoint"/>
                    </mxGeometry>
                </mxCell>
                <mxCell id="tNh6LcQ1jeMBYhsbrOhF-123" value="" style="endArrow=none;html=1;" parent="1" edge="1">
                    <mxGeometry width="50" height="50" relative="1" as="geometry">
                        <mxPoint x="400" y="840" as="sourcePoint"/>
                        <mxPoint x="480" y="800" as="targetPoint"/>
                    </mxGeometry>
                </mxCell>
                <mxCell id="tNh6LcQ1jeMBYhsbrOhF-124" value="" style="endArrow=none;dashed=1;html=1;" parent="1" edge="1">
                    <mxGeometry width="50" height="50" relative="1" as="geometry">
                        <mxPoint x="240" y="1040" as="sourcePoint"/>
                        <mxPoint x="240" y="760" as="targetPoint"/>
                    </mxGeometry>
                </mxCell>
                <mxCell id="tNh6LcQ1jeMBYhsbrOhF-125" value="" style="endArrow=none;dashed=1;html=1;" parent="1" edge="1">
                    <mxGeometry width="50" height="50" relative="1" as="geometry">
                        <mxPoint x="280" y="1040" as="sourcePoint"/>
                        <mxPoint x="280" y="760" as="targetPoint"/>
                    </mxGeometry>
                </mxCell>
                <mxCell id="tNh6LcQ1jeMBYhsbrOhF-126" value="" style="endArrow=none;dashed=1;html=1;" parent="1" edge="1">
                    <mxGeometry width="50" height="50" relative="1" as="geometry">
                        <mxPoint x="320" y="1040" as="sourcePoint"/>
                        <mxPoint x="320" y="760" as="targetPoint"/>
                    </mxGeometry>
                </mxCell>
                <mxCell id="tNh6LcQ1jeMBYhsbrOhF-127" value="" style="endArrow=none;dashed=1;html=1;" parent="1" edge="1">
                    <mxGeometry width="50" height="50" relative="1" as="geometry">
                        <mxPoint x="360" y="1040" as="sourcePoint"/>
                        <mxPoint x="360" y="760" as="targetPoint"/>
                    </mxGeometry>
                </mxCell>
                <mxCell id="tNh6LcQ1jeMBYhsbrOhF-128" value="" style="endArrow=none;dashed=1;html=1;" parent="1" edge="1">
                    <mxGeometry width="50" height="50" relative="1" as="geometry">
                        <mxPoint x="400" y="1040" as="sourcePoint"/>
                        <mxPoint x="400" y="760" as="targetPoint"/>
                    </mxGeometry>
                </mxCell>
                <mxCell id="tNh6LcQ1jeMBYhsbrOhF-129" value="" style="endArrow=none;dashed=1;html=1;" parent="1" edge="1">
                    <mxGeometry width="50" height="50" relative="1" as="geometry">
                        <mxPoint x="440" y="1040" as="sourcePoint"/>
                        <mxPoint x="440" y="760" as="targetPoint"/>
                    </mxGeometry>
                </mxCell>
                <mxCell id="tNh6LcQ1jeMBYhsbrOhF-130" value="" style="endArrow=none;dashed=1;html=1;" parent="1" edge="1">
                    <mxGeometry width="50" height="50" relative="1" as="geometry">
                        <mxPoint x="480" y="1040" as="sourcePoint"/>
                        <mxPoint x="480" y="760" as="targetPoint"/>
                    </mxGeometry>
                </mxCell>
                <mxCell id="tNh6LcQ1jeMBYhsbrOhF-131" value="" style="ellipse;whiteSpace=wrap;html=1;aspect=fixed;strokeColor=default;" parent="1" vertex="1">
                    <mxGeometry x="478" y="798" width="4" height="4" as="geometry"/>
                </mxCell>
                <mxCell id="tNh6LcQ1jeMBYhsbrOhF-132" value="" style="ellipse;whiteSpace=wrap;html=1;aspect=fixed;strokeColor=default;" parent="1" vertex="1">
                    <mxGeometry x="438" y="818" width="4" height="4" as="geometry"/>
                </mxCell>
                <mxCell id="tNh6LcQ1jeMBYhsbrOhF-133" value="" style="ellipse;whiteSpace=wrap;html=1;aspect=fixed;strokeColor=default;" parent="1" vertex="1">
                    <mxGeometry x="398" y="838" width="4" height="4" as="geometry"/>
                </mxCell>
                <mxCell id="tNh6LcQ1jeMBYhsbrOhF-134" value="" style="ellipse;whiteSpace=wrap;html=1;aspect=fixed;strokeColor=default;" parent="1" vertex="1">
                    <mxGeometry x="358" y="918" width="4" height="4" as="geometry"/>
                </mxCell>
                <mxCell id="tNh6LcQ1jeMBYhsbrOhF-135" value="" style="ellipse;whiteSpace=wrap;html=1;aspect=fixed;strokeColor=default;" parent="1" vertex="1">
                    <mxGeometry x="318" y="998" width="4" height="4" as="geometry"/>
                </mxCell>
                <mxCell id="tNh6LcQ1jeMBYhsbrOhF-136" value="" style="ellipse;whiteSpace=wrap;html=1;aspect=fixed;strokeColor=default;" parent="1" vertex="1">
                    <mxGeometry x="278" y="958" width="4" height="4" as="geometry"/>
                </mxCell>
                <mxCell id="tNh6LcQ1jeMBYhsbrOhF-137" value="" style="ellipse;whiteSpace=wrap;html=1;aspect=fixed;" parent="1" vertex="1">
                    <mxGeometry x="238" y="918" width="4" height="4" as="geometry"/>
                </mxCell>
                <mxCell id="tNh6LcQ1jeMBYhsbrOhF-138" value="" style="ellipse;whiteSpace=wrap;html=1;aspect=fixed;fillColor=#F0F0F0;" parent="1" vertex="1">
                    <mxGeometry x="268" y="948" width="4" height="4" as="geometry"/>
                </mxCell>
                <mxCell id="tNh6LcQ1jeMBYhsbrOhF-139" value="" style="ellipse;whiteSpace=wrap;html=1;aspect=fixed;fillColor=#F0F0F0;" parent="1" vertex="1">
                    <mxGeometry x="347" y="938" width="4" height="4" as="geometry"/>
                </mxCell>
                <mxCell id="tNh6LcQ1jeMBYhsbrOhF-140" value="" style="ellipse;whiteSpace=wrap;html=1;aspect=fixed;fillColor=#F0F0F0;" parent="1" vertex="1">
                    <mxGeometry x="464" y="805" width="4" height="4" as="geometry"/>
                </mxCell>
                <mxCell id="tNh6LcQ1jeMBYhsbrOhF-143" value="1" style="text;html=1;strokeColor=none;fillColor=none;align=center;verticalAlign=middle;whiteSpace=wrap;rounded=0;dashed=1;fontSize=6;" parent="1" vertex="1">
                    <mxGeometry x="258" y="990" width="20" height="10" as="geometry"/>
                </mxCell>
                <mxCell id="tNh6LcQ1jeMBYhsbrOhF-144" value="2" style="text;html=1;strokeColor=none;fillColor=none;align=center;verticalAlign=middle;whiteSpace=wrap;rounded=0;dashed=1;fontSize=6;" parent="1" vertex="1">
                    <mxGeometry x="358" y="950" width="20" height="10" as="geometry"/>
                </mxCell>
                <mxCell id="tNh6LcQ1jeMBYhsbrOhF-145" value="3" style="text;html=1;strokeColor=none;fillColor=none;align=center;verticalAlign=middle;whiteSpace=wrap;rounded=0;dashed=1;fontSize=6;" parent="1" vertex="1">
                    <mxGeometry x="480" y="822" width="20" height="10" as="geometry"/>
                </mxCell>
                <mxCell id="tNh6LcQ1jeMBYhsbrOhF-146" value="" style="endArrow=none;dashed=1;html=1;" parent="1" edge="1">
                    <mxGeometry width="50" height="50" relative="1" as="geometry">
                        <mxPoint x="555" y="895" as="sourcePoint"/>
                        <mxPoint x="555" y="875" as="targetPoint"/>
                    </mxGeometry>
                </mxCell>
                <mxCell id="tNh6LcQ1jeMBYhsbrOhF-147" value="阴影图的像素中心" style="text;html=1;strokeColor=none;fillColor=none;align=left;verticalAlign=middle;whiteSpace=wrap;rounded=0;dashed=1;fontSize=10;" parent="1" vertex="1">
                    <mxGeometry x="570" y="870" width="90" height="30" as="geometry"/>
                </mxCell>
                <mxCell id="tNh6LcQ1jeMBYhsbrOhF-148" value="" style="ellipse;whiteSpace=wrap;html=1;aspect=fixed;" parent="1" vertex="1">
                    <mxGeometry x="553" y="913" width="4" height="4" as="geometry"/>
                </mxCell>
                <mxCell id="tNh6LcQ1jeMBYhsbrOhF-149" value="原阴影图的采样点" style="text;html=1;strokeColor=none;fillColor=none;align=left;verticalAlign=middle;whiteSpace=wrap;rounded=0;dashed=1;fontSize=10;" parent="1" vertex="1">
                    <mxGeometry x="570" y="900" width="90" height="30" as="geometry"/>
                </mxCell>
                <mxCell id="tNh6LcQ1jeMBYhsbrOhF-150" value="" style="ellipse;whiteSpace=wrap;html=1;aspect=fixed;fillColor=#F0F0F0;" parent="1" vertex="1">
                    <mxGeometry x="553" y="970" width="4" height="4" as="geometry"/>
                </mxCell>
                <mxCell id="tNh6LcQ1jeMBYhsbrOhF-151" value="观察视角物体采样点" style="text;html=1;strokeColor=none;fillColor=none;align=left;verticalAlign=middle;whiteSpace=wrap;rounded=0;dashed=1;fontSize=10;" parent="1" vertex="1">
                    <mxGeometry x="570" y="960" width="100" height="30" as="geometry"/>
                </mxCell>
                <mxCell id="tNh6LcQ1jeMBYhsbrOhF-152" value="" style="endArrow=none;html=1;fontSize=10;" parent="1" edge="1">
                    <mxGeometry width="50" height="50" relative="1" as="geometry">
                        <mxPoint x="550" y="835" as="sourcePoint"/>
                        <mxPoint x="560" y="815" as="targetPoint"/>
                    </mxGeometry>
                </mxCell>
                <mxCell id="tNh6LcQ1jeMBYhsbrOhF-153" value="物体表面" style="text;html=1;strokeColor=none;fillColor=none;align=left;verticalAlign=middle;whiteSpace=wrap;rounded=0;dashed=1;fontSize=10;" parent="1" vertex="1">
                    <mxGeometry x="570" y="810" width="90" height="30" as="geometry"/>
                </mxCell>
                <mxCell id="tNh6LcQ1jeMBYhsbrOhF-154" value="" style="endArrow=classic;html=1;fontSize=10;" parent="1" edge="1">
                    <mxGeometry width="50" height="50" relative="1" as="geometry">
                        <mxPoint x="200" y="760" as="sourcePoint"/>
                        <mxPoint x="200" y="840" as="targetPoint"/>
                    </mxGeometry>
                </mxCell>
                <mxCell id="tNh6LcQ1jeMBYhsbrOhF-155" value="光源方向" style="text;html=1;strokeColor=none;fillColor=none;align=left;verticalAlign=middle;whiteSpace=wrap;rounded=0;dashed=1;fontSize=10;" parent="1" vertex="1">
                    <mxGeometry x="570" y="840" width="90" height="30" as="geometry"/>
                </mxCell>
                <mxCell id="tNh6LcQ1jeMBYhsbrOhF-156" value="" style="endArrow=classic;html=1;fontSize=10;" parent="1" edge="1">
                    <mxGeometry width="50" height="50" relative="1" as="geometry">
                        <mxPoint x="555" y="845" as="sourcePoint"/>
                        <mxPoint x="555" y="865" as="targetPoint"/>
                    </mxGeometry>
                </mxCell>
                <mxCell id="tNh6LcQ1jeMBYhsbrOhF-158" value="" style="ellipse;whiteSpace=wrap;html=1;aspect=fixed;fillColor=#a20025;fontColor=#ffffff;strokeColor=#6F0000;" parent="1" vertex="1">
                    <mxGeometry x="553" y="610" width="4" height="4" as="geometry"/>
                </mxCell>
                <mxCell id="tNh6LcQ1jeMBYhsbrOhF-159" value="新观察视角物体采样点" style="text;html=1;strokeColor=none;fillColor=none;align=left;verticalAlign=middle;whiteSpace=wrap;rounded=0;dashed=1;fontSize=10;" parent="1" vertex="1">
                    <mxGeometry x="570" y="600" width="105" height="30" as="geometry"/>
                </mxCell>
                <mxCell id="tNh6LcQ1jeMBYhsbrOhF-161" value="" style="endArrow=none;html=1;startArrow=none;" parent="1" edge="1">
                    <mxGeometry width="50" height="50" relative="1" as="geometry">
                        <mxPoint x="240" y="560" as="sourcePoint"/>
                        <mxPoint x="269" y="589" as="targetPoint"/>
                    </mxGeometry>
                </mxCell>
                <mxCell id="tNh6LcQ1jeMBYhsbrOhF-160" value="" style="ellipse;whiteSpace=wrap;html=1;aspect=fixed;fillColor=#F0F0F0;fontColor=#ffffff;strokeColor=default;" parent="1" vertex="1">
                    <mxGeometry x="268" y="588" width="4" height="4" as="geometry"/>
                </mxCell>
                <mxCell id="tNh6LcQ1jeMBYhsbrOhF-165" value="" style="endArrow=none;html=1;" parent="1" edge="1">
                    <mxGeometry width="50" height="50" relative="1" as="geometry">
                        <mxPoint x="320" y="640" as="sourcePoint"/>
                        <mxPoint x="400" y="480" as="targetPoint"/>
                    </mxGeometry>
                </mxCell>
                <mxCell id="tNh6LcQ1jeMBYhsbrOhF-166" value="" style="ellipse;whiteSpace=wrap;html=1;aspect=fixed;fillColor=#F0F0F0;fontColor=#ffffff;strokeColor=default;" parent="1" vertex="1">
                    <mxGeometry x="348" y="578" width="4" height="4" as="geometry"/>
                </mxCell>
                <mxCell id="tNh6LcQ1jeMBYhsbrOhF-168" value="" style="ellipse;whiteSpace=wrap;html=1;aspect=fixed;fillColor=#F0F0F0;fontColor=#ffffff;strokeColor=default;" parent="1" vertex="1">
                    <mxGeometry x="464" y="445" width="4" height="4" as="geometry"/>
                </mxCell>
                <mxCell id="tNh6LcQ1jeMBYhsbrOhF-169" value="" style="ellipse;whiteSpace=wrap;html=1;aspect=fixed;fillColor=none;fontColor=#ffffff;strokeColor=#6F0000;" parent="1" vertex="1">
                    <mxGeometry x="553" y="943" width="4" height="4" as="geometry"/>
                </mxCell>
                <mxCell id="tNh6LcQ1jeMBYhsbrOhF-170" value="新阴影图的采样点" style="text;html=1;strokeColor=none;fillColor=none;align=left;verticalAlign=middle;whiteSpace=wrap;rounded=0;dashed=1;fontSize=10;" parent="1" vertex="1">
                    <mxGeometry x="570" y="930" width="90" height="30" as="geometry"/>
                </mxCell>
                <mxCell id="tNh6LcQ1jeMBYhsbrOhF-171" value="" style="endArrow=none;html=1;startArrow=none;fillColor=#d80073;strokeColor=#A50040;" parent="1" edge="1">
                    <mxGeometry width="50" height="50" relative="1" as="geometry">
                        <mxPoint x="240" y="940" as="sourcePoint"/>
                        <mxPoint x="320" y="1020" as="targetPoint"/>
                    </mxGeometry>
                </mxCell>
                <mxCell id="bwqlX38V84xhb2GGbx7u-1" value="" style="endArrow=none;html=1;fillColor=#d80073;strokeColor=#A50040;startArrow=none;" edge="1" parent="1" source="bwqlX38V84xhb2GGbx7u-7">
                    <mxGeometry width="50" height="50" relative="1" as="geometry">
                        <mxPoint x="320" y="1030" as="sourcePoint"/>
                        <mxPoint x="400" y="870" as="targetPoint"/>
                    </mxGeometry>
                </mxCell>
                <mxCell id="bwqlX38V84xhb2GGbx7u-3" value="" style="ellipse;whiteSpace=wrap;html=1;aspect=fixed;fillColor=default;fontColor=#ffffff;strokeColor=#6F0000;" vertex="1" parent="1">
                    <mxGeometry x="278" y="978" width="4" height="4" as="geometry"/>
                </mxCell>
                <mxCell id="bwqlX38V84xhb2GGbx7u-5" value="" style="ellipse;whiteSpace=wrap;html=1;aspect=fixed;fillColor=default;fontColor=#ffffff;strokeColor=#6F0000;" vertex="1" parent="1">
                    <mxGeometry x="238" y="938" width="4" height="4" as="geometry"/>
                </mxCell>
                <mxCell id="bwqlX38V84xhb2GGbx7u-6" value="" style="ellipse;whiteSpace=wrap;html=1;aspect=fixed;fillColor=default;fontColor=#ffffff;strokeColor=#6F0000;" vertex="1" parent="1">
                    <mxGeometry x="318" y="1018" width="4" height="4" as="geometry"/>
                </mxCell>
                <mxCell id="bwqlX38V84xhb2GGbx7u-8" value="" style="endArrow=none;html=1;fillColor=#d80073;strokeColor=#A50040;" edge="1" parent="1" target="bwqlX38V84xhb2GGbx7u-7">
                    <mxGeometry width="50" height="50" relative="1" as="geometry">
                        <mxPoint x="320" y="1030" as="sourcePoint"/>
                        <mxPoint x="400" y="870.0000000000001" as="targetPoint"/>
                    </mxGeometry>
                </mxCell>
                <mxCell id="bwqlX38V84xhb2GGbx7u-7" value="" style="ellipse;whiteSpace=wrap;html=1;aspect=fixed;fillColor=default;fontColor=#ffffff;strokeColor=#6F0000;" vertex="1" parent="1">
                    <mxGeometry x="358" y="948" width="4" height="4" as="geometry"/>
                </mxCell>
                <mxCell id="bwqlX38V84xhb2GGbx7u-10" value="" style="endArrow=none;html=1;fillColor=#d80073;strokeColor=#A50040;startArrow=none;" edge="1" parent="1" source="bwqlX38V84xhb2GGbx7u-13">
                    <mxGeometry width="50" height="50" relative="1" as="geometry">
                        <mxPoint x="400" y="850.0000000000001" as="sourcePoint"/>
                        <mxPoint x="480" y="810.0000000000001" as="targetPoint"/>
                    </mxGeometry>
                </mxCell>
                <mxCell id="bwqlX38V84xhb2GGbx7u-12" value="" style="endArrow=none;html=1;fillColor=#d80073;strokeColor=#A50040;" edge="1" parent="1" target="bwqlX38V84xhb2GGbx7u-11">
                    <mxGeometry width="50" height="50" relative="1" as="geometry">
                        <mxPoint x="400" y="850.0000000000001" as="sourcePoint"/>
                        <mxPoint x="480" y="810.0000000000001" as="targetPoint"/>
                    </mxGeometry>
                </mxCell>
                <mxCell id="bwqlX38V84xhb2GGbx7u-11" value="" style="ellipse;whiteSpace=wrap;html=1;aspect=fixed;fillColor=default;fontColor=#ffffff;strokeColor=#6F0000;" vertex="1" parent="1">
                    <mxGeometry x="398" y="848" width="4" height="4" as="geometry"/>
                </mxCell>
                <mxCell id="bwqlX38V84xhb2GGbx7u-14" value="" style="endArrow=none;html=1;fillColor=#d80073;strokeColor=#A50040;startArrow=none;" edge="1" parent="1" source="bwqlX38V84xhb2GGbx7u-11" target="bwqlX38V84xhb2GGbx7u-13">
                    <mxGeometry width="50" height="50" relative="1" as="geometry">
                        <mxPoint x="401.78971606403854" y="849.107298252395" as="sourcePoint"/>
                        <mxPoint x="480" y="810.0000000000001" as="targetPoint"/>
                    </mxGeometry>
                </mxCell>
                <mxCell id="bwqlX38V84xhb2GGbx7u-13" value="" style="ellipse;whiteSpace=wrap;html=1;aspect=fixed;fillColor=default;fontColor=#ffffff;strokeColor=#6F0000;" vertex="1" parent="1">
                    <mxGeometry x="438" y="828" width="4" height="4" as="geometry"/>
                </mxCell>
                <mxCell id="bwqlX38V84xhb2GGbx7u-15" value="" style="ellipse;whiteSpace=wrap;html=1;aspect=fixed;fillColor=default;fontColor=#ffffff;strokeColor=#6F0000;" vertex="1" parent="1">
                    <mxGeometry x="478" y="808" width="4" height="4" as="geometry"/>
                </mxCell>
            </root>
        </mxGraphModel>
    </diagram>
    <diagram id="LIVV-n7yOoKimC9MXV_T" name="Page-4">
        <mxGraphModel dx="692" dy="546" grid="1" gridSize="10" guides="1" tooltips="1" connect="1" arrows="1" fold="1" page="1" pageScale="1" pageWidth="850" pageHeight="1100" math="0" shadow="0">
            <root>
                <mxCell id="0"/>
                <mxCell id="1" parent="0"/>
                <mxCell id="hbOC4stp1UO-svd7K6od-1" value="" style="whiteSpace=wrap;html=1;aspect=fixed;strokeColor=default;fillColor=none;" vertex="1" parent="1">
                    <mxGeometry x="160" y="80" width="200" height="200" as="geometry"/>
                </mxCell>
                <mxCell id="hbOC4stp1UO-svd7K6od-4" value="" style="endArrow=none;html=1;exitX=0;exitY=0.2;exitDx=0;exitDy=0;exitPerimeter=0;entryX=0.998;entryY=0.201;entryDx=0;entryDy=0;entryPerimeter=0;" edge="1" parent="1" source="hbOC4stp1UO-svd7K6od-1" target="hbOC4stp1UO-svd7K6od-1">
                    <mxGeometry width="50" height="50" relative="1" as="geometry">
                        <mxPoint x="210" y="190" as="sourcePoint"/>
                        <mxPoint x="260" y="140" as="targetPoint"/>
                    </mxGeometry>
                </mxCell>
                <mxCell id="hbOC4stp1UO-svd7K6od-5" value="" style="endArrow=none;html=1;exitX=0;exitY=0.2;exitDx=0;exitDy=0;exitPerimeter=0;entryX=0.998;entryY=0.201;entryDx=0;entryDy=0;entryPerimeter=0;" edge="1" parent="1">
                    <mxGeometry width="50" height="50" relative="1" as="geometry">
                        <mxPoint x="160" y="160" as="sourcePoint"/>
                        <mxPoint x="359.6" y="160.2" as="targetPoint"/>
                    </mxGeometry>
                </mxCell>
                <mxCell id="hbOC4stp1UO-svd7K6od-6" value="" style="endArrow=none;html=1;exitX=0;exitY=0.2;exitDx=0;exitDy=0;exitPerimeter=0;entryX=0.998;entryY=0.201;entryDx=0;entryDy=0;entryPerimeter=0;" edge="1" parent="1">
                    <mxGeometry width="50" height="50" relative="1" as="geometry">
                        <mxPoint x="160" y="200" as="sourcePoint"/>
                        <mxPoint x="359.6" y="200.2" as="targetPoint"/>
                    </mxGeometry>
                </mxCell>
                <mxCell id="hbOC4stp1UO-svd7K6od-7" value="" style="endArrow=none;html=1;exitX=0;exitY=0.2;exitDx=0;exitDy=0;exitPerimeter=0;entryX=0.998;entryY=0.201;entryDx=0;entryDy=0;entryPerimeter=0;" edge="1" parent="1">
                    <mxGeometry width="50" height="50" relative="1" as="geometry">
                        <mxPoint x="160.4" y="240" as="sourcePoint"/>
                        <mxPoint x="360" y="240.2" as="targetPoint"/>
                    </mxGeometry>
                </mxCell>
                <mxCell id="hbOC4stp1UO-svd7K6od-8" value="" style="endArrow=none;html=1;entryX=0.2;entryY=0;entryDx=0;entryDy=0;entryPerimeter=0;exitX=0.2;exitY=1.001;exitDx=0;exitDy=0;exitPerimeter=0;" edge="1" parent="1" source="hbOC4stp1UO-svd7K6od-1" target="hbOC4stp1UO-svd7K6od-1">
                    <mxGeometry width="50" height="50" relative="1" as="geometry">
                        <mxPoint x="200" y="260" as="sourcePoint"/>
                        <mxPoint x="250" y="210" as="targetPoint"/>
                    </mxGeometry>
                </mxCell>
                <mxCell id="hbOC4stp1UO-svd7K6od-9" value="" style="endArrow=none;html=1;entryX=0.2;entryY=0;entryDx=0;entryDy=0;entryPerimeter=0;exitX=0.2;exitY=1.001;exitDx=0;exitDy=0;exitPerimeter=0;" edge="1" parent="1">
                    <mxGeometry width="50" height="50" relative="1" as="geometry">
                        <mxPoint x="240" y="280.19999999999993" as="sourcePoint"/>
                        <mxPoint x="240" y="80" as="targetPoint"/>
                    </mxGeometry>
                </mxCell>
                <mxCell id="hbOC4stp1UO-svd7K6od-10" value="" style="endArrow=none;html=1;entryX=0.2;entryY=0;entryDx=0;entryDy=0;entryPerimeter=0;exitX=0.2;exitY=1.001;exitDx=0;exitDy=0;exitPerimeter=0;" edge="1" parent="1">
                    <mxGeometry width="50" height="50" relative="1" as="geometry">
                        <mxPoint x="280" y="279.99999999999994" as="sourcePoint"/>
                        <mxPoint x="280" y="79.8" as="targetPoint"/>
                    </mxGeometry>
                </mxCell>
                <mxCell id="hbOC4stp1UO-svd7K6od-11" value="" style="endArrow=none;html=1;entryX=0.2;entryY=0;entryDx=0;entryDy=0;entryPerimeter=0;exitX=0.2;exitY=1.001;exitDx=0;exitDy=0;exitPerimeter=0;" edge="1" parent="1">
                    <mxGeometry width="50" height="50" relative="1" as="geometry">
                        <mxPoint x="320" y="279.99999999999994" as="sourcePoint"/>
                        <mxPoint x="320" y="79.8" as="targetPoint"/>
                    </mxGeometry>
                </mxCell>
                <mxCell id="hbOC4stp1UO-svd7K6od-16" value="" style="ellipse;whiteSpace=wrap;html=1;aspect=fixed;strokeColor=default;fillColor=#F0F0F0;" vertex="1" parent="1">
                    <mxGeometry x="219" y="139" width="2" height="2" as="geometry"/>
                </mxCell>
                <mxCell id="hbOC4stp1UO-svd7K6od-17" value="" style="ellipse;whiteSpace=wrap;html=1;aspect=fixed;strokeColor=default;fillColor=#F0F0F0;" vertex="1" parent="1">
                    <mxGeometry x="259" y="139" width="2" height="2" as="geometry"/>
                </mxCell>
                <mxCell id="hbOC4stp1UO-svd7K6od-18" value="" style="ellipse;whiteSpace=wrap;html=1;aspect=fixed;strokeColor=default;fillColor=#F0F0F0;" vertex="1" parent="1">
                    <mxGeometry x="259" y="179" width="2" height="2" as="geometry"/>
                </mxCell>
                <mxCell id="hbOC4stp1UO-svd7K6od-19" value="" style="ellipse;whiteSpace=wrap;html=1;aspect=fixed;strokeColor=default;fillColor=#F0F0F0;" vertex="1" parent="1">
                    <mxGeometry x="219" y="179" width="2" height="2" as="geometry"/>
                </mxCell>
                <mxCell id="hbOC4stp1UO-svd7K6od-20" value="" style="ellipse;whiteSpace=wrap;html=1;aspect=fixed;strokeColor=#006EAF;fillColor=#1ba1e2;fontColor=#ffffff;" vertex="1" parent="1">
                    <mxGeometry x="249" y="149" width="2" height="2" as="geometry"/>
                </mxCell>
                <mxCell id="hbOC4stp1UO-svd7K6od-21" value="" style="endArrow=none;html=1;" edge="1" parent="1">
                    <mxGeometry width="50" height="50" relative="1" as="geometry">
                        <mxPoint x="400" y="200.5" as="sourcePoint"/>
                        <mxPoint x="520" y="179.5" as="targetPoint"/>
                    </mxGeometry>
                </mxCell>
                <mxCell id="hbOC4stp1UO-svd7K6od-22" value="" style="endArrow=classic;html=1;" edge="1" parent="1">
                    <mxGeometry width="50" height="50" relative="1" as="geometry">
                        <mxPoint x="480" y="79.5" as="sourcePoint"/>
                        <mxPoint x="460" y="189.5" as="targetPoint"/>
                    </mxGeometry>
                </mxCell>
                <mxCell id="hbOC4stp1UO-svd7K6od-24" value="" style="ellipse;whiteSpace=wrap;html=1;aspect=fixed;strokeColor=#006EAF;fillColor=#1ba1e2;fontColor=#ffffff;" vertex="1" parent="1">
                    <mxGeometry x="459" y="188.5" width="2" height="2" as="geometry"/>
                </mxCell>
                <mxCell id="hbOC4stp1UO-svd7K6od-25" value="" style="curved=1;endArrow=classic;html=1;dashed=1;" edge="1" parent="1">
                    <mxGeometry width="50" height="50" relative="1" as="geometry">
                        <mxPoint x="458" y="187" as="sourcePoint"/>
                        <mxPoint x="252" y="152" as="targetPoint"/>
                        <Array as="points">
                            <mxPoint x="430" y="140"/>
                            <mxPoint x="400" y="130"/>
                        </Array>
                    </mxGeometry>
                </mxCell>
                <mxCell id="hbOC4stp1UO-svd7K6od-26" value="阴影图" style="text;html=1;strokeColor=none;fillColor=none;align=center;verticalAlign=middle;whiteSpace=wrap;rounded=0;" vertex="1" parent="1">
                    <mxGeometry x="200.5" y="280" width="99" height="30" as="geometry"/>
                </mxCell>
                <mxCell id="hbOC4stp1UO-svd7K6od-27" value="观察方向" style="text;html=1;strokeColor=none;fillColor=none;align=center;verticalAlign=middle;whiteSpace=wrap;rounded=0;" vertex="1" parent="1">
                    <mxGeometry x="459" y="50" width="99" height="30" as="geometry"/>
                </mxCell>
                <mxCell id="w7wSnPuVLkNO7HkZWFGR-1" value="物体表面" style="text;html=1;strokeColor=none;fillColor=none;align=center;verticalAlign=middle;whiteSpace=wrap;rounded=0;" vertex="1" parent="1">
                    <mxGeometry x="410.5" y="194" width="99" height="30" as="geometry"/>
                </mxCell>
                <mxCell id="w7wSnPuVLkNO7HkZWFGR-2" value="1" style="text;html=1;strokeColor=none;fillColor=none;align=center;verticalAlign=middle;whiteSpace=wrap;rounded=0;" vertex="1" parent="1">
                    <mxGeometry x="200" y="125" width="21" height="14" as="geometry"/>
                </mxCell>
                <mxCell id="w7wSnPuVLkNO7HkZWFGR-3" value="2" style="text;html=1;strokeColor=none;fillColor=none;align=center;verticalAlign=middle;whiteSpace=wrap;rounded=0;" vertex="1" parent="1">
                    <mxGeometry x="259" y="125" width="21" height="14" as="geometry"/>
                </mxCell>
                <mxCell id="w7wSnPuVLkNO7HkZWFGR-4" value="3" style="text;html=1;strokeColor=none;fillColor=none;align=center;verticalAlign=middle;whiteSpace=wrap;rounded=0;" vertex="1" parent="1">
                    <mxGeometry x="200" y="182.5" width="21" height="14" as="geometry"/>
                </mxCell>
                <mxCell id="w7wSnPuVLkNO7HkZWFGR-5" value="4" style="text;html=1;strokeColor=none;fillColor=none;align=center;verticalAlign=middle;whiteSpace=wrap;rounded=0;" vertex="1" parent="1">
                    <mxGeometry x="259" y="182.5" width="21" height="14" as="geometry"/>
                </mxCell>
                <mxCell id="w7wSnPuVLkNO7HkZWFGR-6" value="O" style="text;html=1;strokeColor=none;fillColor=none;align=center;verticalAlign=middle;whiteSpace=wrap;rounded=0;" vertex="1" parent="1">
                    <mxGeometry x="432" y="176.5" width="21" height="14" as="geometry"/>
                </mxCell>
            </root>
        </mxGraphModel>
    </diagram>
    <diagram id="7DB7H2kRsfjdJfJjPR5_" name="Page-5">
        <mxGraphModel grid="0" page="1" gridSize="10" guides="1" tooltips="1" connect="1" arrows="1" fold="1" pageScale="1" pageWidth="850" pageHeight="1100" math="0" shadow="0">
            <root>
                <mxCell id="0"/>
                <mxCell id="1" parent="0"/>
                <mxCell id="weuUcF71az-jDKImmVgw-1" value="" style="ellipse;whiteSpace=wrap;html=1;aspect=fixed;strokeColor=#66B2FF;fontColor=#33FFFF;fillColor=default;" vertex="1" parent="1">
                    <mxGeometry x="380" y="370" as="geometry"/>
                </mxCell>
                <mxCell id="njOF0iZO4WKhaljzI_Ah-1" value="" style="ellipse;whiteSpace=wrap;html=1;aspect=fixed;strokeColor=#66B2FF;fontColor=#33FFFF;fillColor=default;" vertex="1" parent="1">
                    <mxGeometry x="359" y="319" width="2" height="2" as="geometry"/>
                </mxCell>
                <mxCell id="njOF0iZO4WKhaljzI_Ah-2" value="" style="endArrow=none;html=1;strokeColor=#00CC00;fontColor=#33FFFF;" edge="1" parent="1">
                    <mxGeometry width="50" height="50" relative="1" as="geometry">
                        <mxPoint x="340" y="360" as="sourcePoint"/>
                        <mxPoint x="380" y="360" as="targetPoint"/>
                    </mxGeometry>
                </mxCell>
                <mxCell id="njOF0iZO4WKhaljzI_Ah-3" value="" style="endArrow=none;html=1;strokeColor=#33FFFF;fontColor=#33FFFF;" edge="1" parent="1">
                    <mxGeometry width="50" height="50" relative="1" as="geometry">
                        <mxPoint x="280" y="440" as="sourcePoint"/>
                        <mxPoint x="440" y="440" as="targetPoint"/>
                    </mxGeometry>
                </mxCell>
                <mxCell id="njOF0iZO4WKhaljzI_Ah-4" value="" style="endArrow=none;dashed=1;html=1;strokeColor=default;fontColor=#33FFFF;entryX=0.566;entryY=0.745;entryDx=0;entryDy=0;entryPerimeter=0;" edge="1" parent="1" target="njOF0iZO4WKhaljzI_Ah-1">
                    <mxGeometry width="50" height="50" relative="1" as="geometry">
                        <mxPoint x="300" y="440" as="sourcePoint"/>
                        <mxPoint x="450" y="390" as="targetPoint"/>
                    </mxGeometry>
                </mxCell>
                <mxCell id="njOF0iZO4WKhaljzI_Ah-5" value="" style="endArrow=none;dashed=1;html=1;strokeColor=default;fontColor=#33FFFF;" edge="1" parent="1">
                    <mxGeometry width="50" height="50" relative="1" as="geometry">
                        <mxPoint x="420" y="440" as="sourcePoint"/>
                        <mxPoint x="360" y="320" as="targetPoint"/>
                    </mxGeometry>
                </mxCell>
                <mxCell id="njOF0iZO4WKhaljzI_Ah-7" value="" style="endArrow=none;html=1;strokeColor=#FFFFFF;fontColor=#33FFFF;" edge="1" parent="1">
                    <mxGeometry width="50" height="50" relative="1" as="geometry">
                        <mxPoint x="300" y="440" as="sourcePoint"/>
                        <mxPoint x="420" y="440" as="targetPoint"/>
                    </mxGeometry>
                </mxCell>
                <mxCell id="-Z1yd8vnY_SL_2NTgoVC-2" value="" style="shape=curlyBracket;whiteSpace=wrap;html=1;rounded=1;labelPosition=left;verticalLabelPosition=middle;align=right;verticalAlign=middle;strokeColor=default;fontColor=#33FFFF;fillColor=default;rotation=-90;" vertex="1" parent="1">
                    <mxGeometry x="355" y="385" width="10" height="120" as="geometry"/>
                </mxCell>
                <mxCell id="-Z1yd8vnY_SL_2NTgoVC-3" value="umbra" style="text;html=1;strokeColor=none;fillColor=none;align=center;verticalAlign=middle;whiteSpace=wrap;rounded=0;fontColor=#FFFFFF;" vertex="1" parent="1">
                    <mxGeometry x="330" y="450" width="60" height="20" as="geometry"/>
                </mxCell>
                <mxCell id="-Z1yd8vnY_SL_2NTgoVC-4" value="" style="endArrow=none;html=1;strokeColor=#FFFF00;fontColor=#FFFFFF;" edge="1" parent="1">
                    <mxGeometry width="50" height="50" relative="1" as="geometry">
                        <mxPoint x="580" y="319" as="sourcePoint"/>
                        <mxPoint x="560" y="319" as="targetPoint"/>
                    </mxGeometry>
                </mxCell>
                <mxCell id="-Z1yd8vnY_SL_2NTgoVC-5" value="" style="endArrow=none;html=1;strokeColor=#00CC00;fontColor=#33FFFF;" edge="1" parent="1">
                    <mxGeometry width="50" height="50" relative="1" as="geometry">
                        <mxPoint x="550" y="359.2" as="sourcePoint"/>
                        <mxPoint x="590" y="359.2" as="targetPoint"/>
                    </mxGeometry>
                </mxCell>
                <mxCell id="-Z1yd8vnY_SL_2NTgoVC-6" value="" style="endArrow=none;html=1;strokeColor=#33FFFF;fontColor=#33FFFF;" edge="1" parent="1">
                    <mxGeometry width="50" height="50" relative="1" as="geometry">
                        <mxPoint x="480" y="440" as="sourcePoint"/>
                        <mxPoint x="660" y="440" as="targetPoint"/>
                    </mxGeometry>
                </mxCell>
                <mxCell id="-Z1yd8vnY_SL_2NTgoVC-7" value="" style="endArrow=none;dashed=1;html=1;strokeColor=#FFFFFF;fontColor=#FFFFFF;" edge="1" parent="1">
                    <mxGeometry width="50" height="50" relative="1" as="geometry">
                        <mxPoint x="490" y="439.2" as="sourcePoint"/>
                        <mxPoint x="580" y="319.2" as="targetPoint"/>
                    </mxGeometry>
                </mxCell>
                <mxCell id="-Z1yd8vnY_SL_2NTgoVC-8" value="" style="endArrow=none;dashed=1;html=1;strokeColor=#FFFFFF;fontColor=#FFFFFF;" edge="1" parent="1">
                    <mxGeometry width="50" height="50" relative="1" as="geometry">
                        <mxPoint x="530" y="439.2" as="sourcePoint"/>
                        <mxPoint x="560" y="319.2" as="targetPoint"/>
                    </mxGeometry>
                </mxCell>
                <mxCell id="-Z1yd8vnY_SL_2NTgoVC-9" value="" style="endArrow=none;dashed=1;html=1;strokeColor=#FFFFFF;fontColor=#FFFFFF;" edge="1" parent="1">
                    <mxGeometry width="50" height="50" relative="1" as="geometry">
                        <mxPoint x="610" y="439.2" as="sourcePoint"/>
                        <mxPoint x="580" y="319.2" as="targetPoint"/>
                    </mxGeometry>
                </mxCell>
                <mxCell id="-Z1yd8vnY_SL_2NTgoVC-10" value="" style="endArrow=none;dashed=1;html=1;strokeColor=#FFFFFF;fontColor=#FFFFFF;" edge="1" parent="1">
                    <mxGeometry width="50" height="50" relative="1" as="geometry">
                        <mxPoint x="650" y="439.2" as="sourcePoint"/>
                        <mxPoint x="560" y="319.2" as="targetPoint"/>
                    </mxGeometry>
                </mxCell>
                <mxCell id="vw0GxI-_Wab0lD3uMc_8-1" value="" style="shape=curlyBracket;whiteSpace=wrap;html=1;rounded=1;labelPosition=left;verticalLabelPosition=middle;align=right;verticalAlign=middle;strokeColor=default;fontColor=#33FFFF;fillColor=default;rotation=-90;" vertex="1" parent="1">
                    <mxGeometry x="565" y="405" width="10" height="80" as="geometry"/>
                </mxCell>
                <mxCell id="vw0GxI-_Wab0lD3uMc_8-2" value="umbra" style="text;html=1;strokeColor=none;fillColor=none;align=center;verticalAlign=middle;whiteSpace=wrap;rounded=0;fontColor=#FFFFFF;" vertex="1" parent="1">
                    <mxGeometry x="540" y="450" width="60" height="20" as="geometry"/>
                </mxCell>
                <mxCell id="vw0GxI-_Wab0lD3uMc_8-3" value="" style="endArrow=none;html=1;strokeColor=#FFFFFF;fontColor=#FFFFFF;" edge="1" parent="1">
                    <mxGeometry width="50" height="50" relative="1" as="geometry">
                        <mxPoint x="490" y="440" as="sourcePoint"/>
                        <mxPoint x="650" y="440" as="targetPoint"/>
                    </mxGeometry>
                </mxCell>
                <mxCell id="vw0GxI-_Wab0lD3uMc_8-4" value="" style="shape=curlyBracket;whiteSpace=wrap;html=1;rounded=1;labelPosition=left;verticalLabelPosition=middle;align=right;verticalAlign=middle;strokeColor=default;fontColor=#FFFFFF;fillColor=default;rotation=-90;" vertex="1" parent="1">
                    <mxGeometry x="505" y="425" width="10" height="40" as="geometry"/>
                </mxCell>
                <mxCell id="vw0GxI-_Wab0lD3uMc_8-5" value="" style="shape=curlyBracket;whiteSpace=wrap;html=1;rounded=1;labelPosition=left;verticalLabelPosition=middle;align=right;verticalAlign=middle;strokeColor=default;fontColor=#FFFFFF;fillColor=default;rotation=-90;" vertex="1" parent="1">
                    <mxGeometry x="625" y="425" width="10" height="40" as="geometry"/>
                </mxCell>
                <mxCell id="vw0GxI-_Wab0lD3uMc_8-6" value="penumbra" style="text;html=1;strokeColor=none;fillColor=none;align=center;verticalAlign=middle;whiteSpace=wrap;rounded=0;fontColor=#FFFFFF;" vertex="1" parent="1">
                    <mxGeometry x="480" y="450" width="60" height="20" as="geometry"/>
                </mxCell>
                <mxCell id="vw0GxI-_Wab0lD3uMc_8-7" value="penumbra" style="text;html=1;strokeColor=none;fillColor=none;align=center;verticalAlign=middle;whiteSpace=wrap;rounded=0;fontColor=#FFFFFF;" vertex="1" parent="1">
                    <mxGeometry x="600" y="450" width="60" height="20" as="geometry"/>
                </mxCell>
                <mxCell id="vw0GxI-_Wab0lD3uMc_8-8" value="point light" style="text;html=1;strokeColor=none;fillColor=none;align=center;verticalAlign=middle;whiteSpace=wrap;rounded=0;fontColor=#FFFFFF;" vertex="1" parent="1">
                    <mxGeometry x="330" y="299" width="60" height="20" as="geometry"/>
                </mxCell>
                <mxCell id="vw0GxI-_Wab0lD3uMc_8-9" value="area light" style="text;html=1;strokeColor=none;fillColor=none;align=center;verticalAlign=middle;whiteSpace=wrap;rounded=0;fontColor=#FFFFFF;" vertex="1" parent="1">
                    <mxGeometry x="540" y="299" width="60" height="20" as="geometry"/>
                </mxCell>
            </root>
        </mxGraphModel>
    </diagram>
    <diagram id="8pf1O6cr10ciRZUfjzhC" name="Page-6">
        <mxGraphModel dx="692" dy="546" grid="0" gridSize="10" guides="1" tooltips="1" connect="1" arrows="1" fold="1" page="1" pageScale="1" pageWidth="850" pageHeight="1100" math="0" shadow="0">
            <root>
                <mxCell id="0"/>
                <mxCell id="1" parent="0"/>
                <mxCell id="f54dPx9eIemguGWV7G7G-12" value="" style="endArrow=none;html=1;strokeColor=#33FFFF;fontColor=#FFFF00;" parent="1" edge="1">
                    <mxGeometry width="50" height="50" relative="1" as="geometry">
                        <mxPoint x="80" y="440" as="sourcePoint"/>
                        <mxPoint x="140" y="440" as="targetPoint"/>
                    </mxGeometry>
                </mxCell>
                <mxCell id="f54dPx9eIemguGWV7G7G-9" value="w&lt;sub&gt;Light&lt;/sub&gt;" style="text;html=1;strokeColor=none;fillColor=none;align=center;verticalAlign=middle;whiteSpace=wrap;rounded=0;fontColor=#FFFF00;" parent="1" vertex="1">
                    <mxGeometry x="310" y="70" width="60" height="30" as="geometry"/>
                </mxCell>
                <mxCell id="f54dPx9eIemguGWV7G7G-1" value="" style="endArrow=none;html=1;strokeColor=#FFFF00;" parent="1" edge="1">
                    <mxGeometry width="50" height="50" relative="1" as="geometry">
                        <mxPoint x="320" y="120" as="sourcePoint"/>
                        <mxPoint x="360" y="120" as="targetPoint"/>
                    </mxGeometry>
                </mxCell>
                <mxCell id="f54dPx9eIemguGWV7G7G-2" value="" style="endArrow=none;html=1;" parent="1" edge="1">
                    <mxGeometry width="50" height="50" relative="1" as="geometry">
                        <mxPoint x="140" y="440" as="sourcePoint"/>
                        <mxPoint x="210" y="440" as="targetPoint"/>
                    </mxGeometry>
                </mxCell>
                <mxCell id="f54dPx9eIemguGWV7G7G-3" value="" style="endArrow=none;html=1;strokeColor=#00CC00;" parent="1" edge="1">
                    <mxGeometry width="50" height="50" relative="1" as="geometry">
                        <mxPoint x="280" y="240" as="sourcePoint"/>
                        <mxPoint x="360" y="240" as="targetPoint"/>
                    </mxGeometry>
                </mxCell>
                <mxCell id="f54dPx9eIemguGWV7G7G-4" value="" style="endArrow=none;dashed=1;html=1;strokeColor=#FFFF00;" parent="1" edge="1">
                    <mxGeometry width="50" height="50" relative="1" as="geometry">
                        <mxPoint x="210" y="440" as="sourcePoint"/>
                        <mxPoint x="320" y="120" as="targetPoint"/>
                    </mxGeometry>
                </mxCell>
                <mxCell id="f54dPx9eIemguGWV7G7G-5" value="" style="endArrow=none;dashed=1;html=1;strokeColor=#FFFF00;" parent="1" edge="1">
                    <mxGeometry width="50" height="50" relative="1" as="geometry">
                        <mxPoint x="140" y="440" as="sourcePoint"/>
                        <mxPoint x="360" y="120" as="targetPoint"/>
                    </mxGeometry>
                </mxCell>
                <mxCell id="f54dPx9eIemguGWV7G7G-6" value="" style="endArrow=none;dashed=1;html=1;strokeColor=#FF8000;" parent="1" edge="1">
                    <mxGeometry width="50" height="50" relative="1" as="geometry">
                        <mxPoint x="210" y="440" as="sourcePoint"/>
                        <mxPoint x="280" y="440" as="targetPoint"/>
                    </mxGeometry>
                </mxCell>
                <mxCell id="f54dPx9eIemguGWV7G7G-7" value="" style="endArrow=none;dashed=1;html=1;strokeColor=#66B2FF;" parent="1" edge="1">
                    <mxGeometry width="50" height="50" relative="1" as="geometry">
                        <mxPoint x="280" y="440" as="sourcePoint"/>
                        <mxPoint x="280" y="120" as="targetPoint"/>
                    </mxGeometry>
                </mxCell>
                <mxCell id="f54dPx9eIemguGWV7G7G-8" value="" style="endArrow=none;dashed=1;html=1;strokeColor=#FF8000;" parent="1" edge="1">
                    <mxGeometry width="50" height="50" relative="1" as="geometry">
                        <mxPoint x="280" y="120" as="sourcePoint"/>
                        <mxPoint x="320" y="120" as="targetPoint"/>
                    </mxGeometry>
                </mxCell>
                <mxCell id="f54dPx9eIemguGWV7G7G-10" value="Blocker" style="text;html=1;strokeColor=none;fillColor=none;align=center;verticalAlign=middle;whiteSpace=wrap;rounded=0;fontColor=#00CC00;" parent="1" vertex="1">
                    <mxGeometry x="310" y="210" width="60" height="30" as="geometry"/>
                </mxCell>
                <mxCell id="f54dPx9eIemguGWV7G7G-11" value="w&lt;sub&gt;Penumbra&lt;/sub&gt;" style="text;html=1;strokeColor=none;fillColor=none;align=center;verticalAlign=middle;whiteSpace=wrap;rounded=0;" parent="1" vertex="1">
                    <mxGeometry x="145" y="450" width="60" height="30" as="geometry"/>
                </mxCell>
                <mxCell id="f54dPx9eIemguGWV7G7G-13" value="" style="endArrow=none;html=1;strokeColor=#33FFFF;fontColor=#FFFF00;" parent="1" edge="1">
                    <mxGeometry width="50" height="50" relative="1" as="geometry">
                        <mxPoint x="279.9999999999999" y="440" as="sourcePoint"/>
                        <mxPoint x="440" y="440" as="targetPoint"/>
                    </mxGeometry>
                </mxCell>
                <mxCell id="f54dPx9eIemguGWV7G7G-15" value="" style="shape=curlyBracket;whiteSpace=wrap;html=1;rounded=1;flipH=1;labelPosition=right;verticalLabelPosition=middle;align=left;verticalAlign=middle;strokeColor=default;fontColor=#FFFF00;fillColor=default;rotation=90;" parent="1" vertex="1">
                    <mxGeometry x="165" y="415" width="20" height="70" as="geometry"/>
                </mxCell>
                <mxCell id="f54dPx9eIemguGWV7G7G-16" value="" style="shape=curlyBracket;whiteSpace=wrap;html=1;rounded=1;flipH=1;labelPosition=right;verticalLabelPosition=middle;align=left;verticalAlign=middle;strokeColor=#FFFF00;fontColor=#FFFF00;fillColor=default;rotation=-90;" parent="1" vertex="1">
                    <mxGeometry x="330" y="89" width="20" height="40" as="geometry"/>
                </mxCell>
                <mxCell id="f54dPx9eIemguGWV7G7G-17" value="" style="shape=curlyBracket;whiteSpace=wrap;html=1;rounded=1;labelPosition=left;verticalLabelPosition=middle;align=right;verticalAlign=middle;strokeColor=#00CC00;fontColor=#FFFF00;fillColor=default;" parent="1" vertex="1">
                    <mxGeometry x="260" y="120" width="20" height="120" as="geometry"/>
                </mxCell>
                <mxCell id="f54dPx9eIemguGWV7G7G-18" value="d&lt;sub&gt;Blocker&lt;/sub&gt;" style="text;html=1;strokeColor=none;fillColor=none;align=center;verticalAlign=middle;whiteSpace=wrap;rounded=0;fontColor=#00CC00;" parent="1" vertex="1">
                    <mxGeometry x="200" y="165" width="60" height="30" as="geometry"/>
                </mxCell>
                <mxCell id="f54dPx9eIemguGWV7G7G-19" value="" style="shape=curlyBracket;whiteSpace=wrap;html=1;rounded=1;flipH=1;labelPosition=right;verticalLabelPosition=middle;align=left;verticalAlign=middle;strokeColor=#66B2FF;fontColor=#00CC00;fillColor=default;" parent="1" vertex="1">
                    <mxGeometry x="360" y="120" width="20" height="320" as="geometry"/>
                </mxCell>
                <mxCell id="f54dPx9eIemguGWV7G7G-20" value="d&lt;sub&gt;Receiver&lt;/sub&gt;" style="text;html=1;strokeColor=none;fillColor=none;align=center;verticalAlign=middle;whiteSpace=wrap;rounded=0;fontColor=#66B2FF;" parent="1" vertex="1">
                    <mxGeometry x="380" y="265" width="60" height="30" as="geometry"/>
                </mxCell>
                <mxCell id="f54dPx9eIemguGWV7G7G-21" value="&lt;font color=&quot;#33ffff&quot;&gt;&lt;span style=&quot;font-size: 12px;&quot;&gt;R&lt;/span&gt;eceiver&lt;/font&gt;" style="text;html=1;strokeColor=none;fillColor=none;align=center;verticalAlign=middle;whiteSpace=wrap;rounded=0;fontColor=#66B2FF;" parent="1" vertex="1">
                    <mxGeometry x="410" y="440" width="60" height="30" as="geometry"/>
                </mxCell>
            </root>
        </mxGraphModel>
    </diagram>
    <diagram id="jC_mmTjFTmn7uzMkqCX2" name="Page-7">
        <mxGraphModel dx="502" dy="396" grid="0" gridSize="10" guides="1" tooltips="1" connect="1" arrows="1" fold="1" page="1" pageScale="1" pageWidth="850" pageHeight="1100" math="0" shadow="0">
            <root>
                <mxCell id="0"/>
                <mxCell id="1" parent="0"/>
                <mxCell id="Ispq_gNXn7621Qo1SKku-2" value="" style="shape=parallelogram;perimeter=parallelogramPerimeter;whiteSpace=wrap;html=1;fixedSize=1;strokeColor=#F0F0F0;fontColor=#FFFFFF;fillColor=#808080;" parent="1" vertex="1">
                    <mxGeometry x="240" y="280" width="160" height="80" as="geometry"/>
                </mxCell>
                <mxCell id="Ispq_gNXn7621Qo1SKku-4" value="" style="shape=parallelogram;perimeter=parallelogramPerimeter;whiteSpace=wrap;html=1;fixedSize=1;strokeColor=default;fontColor=#FFFFFF;fillColor=#FFFF00;" parent="1" vertex="1">
                    <mxGeometry x="280" y="250" width="60" height="20" as="geometry"/>
                </mxCell>
                <mxCell id="Ispq_gNXn7621Qo1SKku-5" value="" style="shape=parallelogram;perimeter=parallelogramPerimeter;whiteSpace=wrap;html=1;fixedSize=1;strokeColor=default;fontColor=#FFFFFF;fillColor=#66B2FF;" parent="1" vertex="1">
                    <mxGeometry x="193" y="380" width="210" height="90" as="geometry"/>
                </mxCell>
                <mxCell id="Ispq_gNXn7621Qo1SKku-6" value="" style="ellipse;whiteSpace=wrap;html=1;aspect=fixed;strokeColor=#CC0000;fontColor=#FFFFFF;fillColor=#CC0000;" parent="1" vertex="1">
                    <mxGeometry x="299" y="439" width="2" height="2" as="geometry"/>
                </mxCell>
                <mxCell id="Ispq_gNXn7621Qo1SKku-7" value="" style="endArrow=none;dashed=1;html=1;strokeColor=#CC0000;fontColor=#FFFFFF;entryX=0;entryY=1;entryDx=0;entryDy=0;" parent="1" target="Ispq_gNXn7621Qo1SKku-4" edge="1">
                    <mxGeometry width="50" height="50" relative="1" as="geometry">
                        <mxPoint x="300" y="440" as="sourcePoint"/>
                        <mxPoint x="260" y="400" as="targetPoint"/>
                    </mxGeometry>
                </mxCell>
                <mxCell id="Ispq_gNXn7621Qo1SKku-8" value="" style="endArrow=none;dashed=1;html=1;strokeColor=#CC0000;fontColor=#FFFFFF;entryX=0.658;entryY=1.025;entryDx=0;entryDy=0;entryPerimeter=0;" parent="1" target="Ispq_gNXn7621Qo1SKku-4" edge="1">
                    <mxGeometry width="50" height="50" relative="1" as="geometry">
                        <mxPoint x="300" y="440" as="sourcePoint"/>
                        <mxPoint x="337" y="342" as="targetPoint"/>
                    </mxGeometry>
                </mxCell>
                <mxCell id="Ispq_gNXn7621Qo1SKku-9" value="" style="endArrow=none;dashed=1;html=1;strokeColor=#CC0000;fontColor=#FFFFFF;entryX=0.335;entryY=-0.023;entryDx=0;entryDy=0;entryPerimeter=0;" parent="1" target="Ispq_gNXn7621Qo1SKku-4" edge="1">
                    <mxGeometry width="50" height="50" relative="1" as="geometry">
                        <mxPoint x="300" y="440" as="sourcePoint"/>
                        <mxPoint x="260" y="330" as="targetPoint"/>
                    </mxGeometry>
                </mxCell>
                <mxCell id="Ispq_gNXn7621Qo1SKku-10" value="" style="endArrow=none;dashed=1;html=1;strokeColor=#CC0000;fontColor=#FFFFFF;entryX=1;entryY=0;entryDx=0;entryDy=0;exitX=0.557;exitY=0.566;exitDx=0;exitDy=0;exitPerimeter=0;" parent="1" source="Ispq_gNXn7621Qo1SKku-6" target="Ispq_gNXn7621Qo1SKku-4" edge="1">
                    <mxGeometry width="50" height="50" relative="1" as="geometry">
                        <mxPoint x="270" y="390" as="sourcePoint"/>
                        <mxPoint x="320" y="340" as="targetPoint"/>
                    </mxGeometry>
                </mxCell>
                <mxCell id="Ispq_gNXn7621Qo1SKku-12" value="" style="endArrow=none;html=1;strokeColor=#CC0000;fontColor=#FFFFFF;" parent="1" edge="1">
                    <mxGeometry width="50" height="50" relative="1" as="geometry">
                        <mxPoint x="300" y="300" as="sourcePoint"/>
                        <mxPoint x="330" y="300" as="targetPoint"/>
                    </mxGeometry>
                </mxCell>
                <mxCell id="Ispq_gNXn7621Qo1SKku-13" value="" style="endArrow=none;html=1;strokeColor=#CC0000;fontColor=#FFFFFF;" parent="1" edge="1">
                    <mxGeometry width="50" height="50" relative="1" as="geometry">
                        <mxPoint x="300" y="300" as="sourcePoint"/>
                        <mxPoint x="328" y="300" as="targetPoint"/>
                    </mxGeometry>
                </mxCell>
                <mxCell id="Ispq_gNXn7621Qo1SKku-14" value="" style="endArrow=none;html=1;strokeColor=#CC0000;fontColor=#FFFFFF;" parent="1" edge="1">
                    <mxGeometry width="50" height="50" relative="1" as="geometry">
                        <mxPoint x="286" y="320" as="sourcePoint"/>
                        <mxPoint x="300" y="300" as="targetPoint"/>
                    </mxGeometry>
                </mxCell>
                <mxCell id="Ispq_gNXn7621Qo1SKku-15" value="" style="endArrow=none;html=1;strokeColor=#CC0000;fontColor=#FFFFFF;" parent="1" edge="1">
                    <mxGeometry width="50" height="50" relative="1" as="geometry">
                        <mxPoint x="314" y="320" as="sourcePoint"/>
                        <mxPoint x="330" y="300" as="targetPoint"/>
                    </mxGeometry>
                </mxCell>
                <mxCell id="Ispq_gNXn7621Qo1SKku-19" value="" style="endArrow=none;html=1;strokeColor=#CC0000;fontColor=#FFFFFF;" parent="1" edge="1">
                    <mxGeometry width="50" height="50" relative="1" as="geometry">
                        <mxPoint x="286" y="319.95" as="sourcePoint"/>
                        <mxPoint x="314" y="319.95" as="targetPoint"/>
                    </mxGeometry>
                </mxCell>
                <mxCell id="Ispq_gNXn7621Qo1SKku-20" value="" style="endArrow=classic;html=1;strokeColor=#CC0000;fontColor=#FFFFFF;entryX=0;entryY=0;entryDx=0;entryDy=0;" parent="1" target="Ispq_gNXn7621Qo1SKku-6" edge="1">
                    <mxGeometry width="50" height="50" relative="1" as="geometry">
                        <mxPoint x="170" y="360" as="sourcePoint"/>
                        <mxPoint x="370" y="340" as="targetPoint"/>
                    </mxGeometry>
                </mxCell>
                <mxCell id="Ispq_gNXn7621Qo1SKku-21" value="eye" style="text;html=1;strokeColor=none;fillColor=none;align=center;verticalAlign=middle;whiteSpace=wrap;rounded=0;fontColor=#CC0000;" parent="1" vertex="1">
                    <mxGeometry x="130" y="340" width="60" height="30" as="geometry"/>
                </mxCell>
                <mxCell id="Ispq_gNXn7621Qo1SKku-22" value="light" style="text;html=1;strokeColor=none;fillColor=none;align=center;verticalAlign=middle;whiteSpace=wrap;rounded=0;fontColor=#FFFF00;" parent="1" vertex="1">
                    <mxGeometry x="289" y="225" width="60" height="30" as="geometry"/>
                </mxCell>
                <mxCell id="Ispq_gNXn7621Qo1SKku-23" value="shadow map" style="text;html=1;strokeColor=none;fillColor=none;align=center;verticalAlign=middle;whiteSpace=wrap;rounded=0;fontColor=#808080;" parent="1" vertex="1">
                    <mxGeometry x="323" y="354" width="90" height="30" as="geometry"/>
                </mxCell>
                <mxCell id="Ispq_gNXn7621Qo1SKku-25" value="scene" style="text;html=1;strokeColor=none;fillColor=none;align=center;verticalAlign=middle;whiteSpace=wrap;rounded=0;fontColor=#33FFFF;" parent="1" vertex="1">
                    <mxGeometry x="330" y="462" width="60" height="30" as="geometry"/>
                </mxCell>
                <mxCell id="Ispq_gNXn7621Qo1SKku-26" value="" style="whiteSpace=wrap;html=1;aspect=fixed;strokeColor=#F0F0F0;fontColor=#33FFFF;fillColor=#808080;" parent="1" vertex="1">
                    <mxGeometry x="480" y="280" width="80" height="80" as="geometry"/>
                </mxCell>
                <mxCell id="Ispq_gNXn7621Qo1SKku-28" value="" style="endArrow=none;html=1;strokeColor=default;fontColor=#33FFFF;" parent="1" edge="1">
                    <mxGeometry width="50" height="50" relative="1" as="geometry">
                        <mxPoint x="480" y="300" as="sourcePoint"/>
                        <mxPoint x="560" y="300" as="targetPoint"/>
                    </mxGeometry>
                </mxCell>
                <mxCell id="Ispq_gNXn7621Qo1SKku-29" value="" style="endArrow=none;html=1;strokeColor=default;fontColor=#33FFFF;" parent="1" edge="1">
                    <mxGeometry width="50" height="50" relative="1" as="geometry">
                        <mxPoint x="480" y="310" as="sourcePoint"/>
                        <mxPoint x="560" y="310" as="targetPoint"/>
                        <Array as="points">
                            <mxPoint x="510" y="310"/>
                        </Array>
                    </mxGeometry>
                </mxCell>
                <mxCell id="Ispq_gNXn7621Qo1SKku-30" value="" style="endArrow=none;html=1;strokeColor=default;fontColor=#33FFFF;" parent="1" edge="1">
                    <mxGeometry width="50" height="50" relative="1" as="geometry">
                        <mxPoint x="480" y="319.83000000000004" as="sourcePoint"/>
                        <mxPoint x="560" y="319.83000000000004" as="targetPoint"/>
                    </mxGeometry>
                </mxCell>
                <mxCell id="Ispq_gNXn7621Qo1SKku-31" value="" style="endArrow=none;html=1;strokeColor=default;fontColor=#33FFFF;" parent="1" edge="1">
                    <mxGeometry width="50" height="50" relative="1" as="geometry">
                        <mxPoint x="480" y="330" as="sourcePoint"/>
                        <mxPoint x="560" y="330" as="targetPoint"/>
                    </mxGeometry>
                </mxCell>
                <mxCell id="Ispq_gNXn7621Qo1SKku-32" value="" style="endArrow=none;html=1;strokeColor=default;fontColor=#33FFFF;" parent="1" edge="1">
                    <mxGeometry width="50" height="50" relative="1" as="geometry">
                        <mxPoint x="480" y="340" as="sourcePoint"/>
                        <mxPoint x="560" y="340" as="targetPoint"/>
                    </mxGeometry>
                </mxCell>
                <mxCell id="Ispq_gNXn7621Qo1SKku-33" value="" style="endArrow=none;html=1;strokeColor=default;fontColor=#33FFFF;" parent="1" edge="1">
                    <mxGeometry width="50" height="50" relative="1" as="geometry">
                        <mxPoint x="480" y="350" as="sourcePoint"/>
                        <mxPoint x="560" y="350" as="targetPoint"/>
                    </mxGeometry>
                </mxCell>
                <mxCell id="Ispq_gNXn7621Qo1SKku-34" value="" style="endArrow=none;html=1;strokeColor=default;fontColor=#33FFFF;" parent="1" edge="1">
                    <mxGeometry width="50" height="50" relative="1" as="geometry">
                        <mxPoint x="490" y="280" as="sourcePoint"/>
                        <mxPoint x="490" y="360" as="targetPoint"/>
                    </mxGeometry>
                </mxCell>
                <mxCell id="Ispq_gNXn7621Qo1SKku-35" value="" style="endArrow=none;html=1;strokeColor=default;fontColor=#33FFFF;" parent="1" edge="1">
                    <mxGeometry width="50" height="50" relative="1" as="geometry">
                        <mxPoint x="500" y="280" as="sourcePoint"/>
                        <mxPoint x="500" y="360" as="targetPoint"/>
                    </mxGeometry>
                </mxCell>
                <mxCell id="Ispq_gNXn7621Qo1SKku-36" value="" style="endArrow=none;html=1;strokeColor=default;fontColor=#33FFFF;" parent="1" edge="1">
                    <mxGeometry width="50" height="50" relative="1" as="geometry">
                        <mxPoint x="510" y="280" as="sourcePoint"/>
                        <mxPoint x="510" y="360" as="targetPoint"/>
                    </mxGeometry>
                </mxCell>
                <mxCell id="Ispq_gNXn7621Qo1SKku-37" value="" style="endArrow=none;html=1;strokeColor=default;fontColor=#33FFFF;" parent="1" edge="1">
                    <mxGeometry width="50" height="50" relative="1" as="geometry">
                        <mxPoint x="520" y="280" as="sourcePoint"/>
                        <mxPoint x="520" y="360" as="targetPoint"/>
                    </mxGeometry>
                </mxCell>
                <mxCell id="Ispq_gNXn7621Qo1SKku-38" value="" style="endArrow=none;html=1;strokeColor=default;fontColor=#33FFFF;" parent="1" edge="1">
                    <mxGeometry width="50" height="50" relative="1" as="geometry">
                        <mxPoint x="530" y="280" as="sourcePoint"/>
                        <mxPoint x="530" y="360" as="targetPoint"/>
                    </mxGeometry>
                </mxCell>
                <mxCell id="Ispq_gNXn7621Qo1SKku-40" value="" style="endArrow=none;html=1;strokeColor=default;fontColor=#33FFFF;" parent="1" edge="1">
                    <mxGeometry width="50" height="50" relative="1" as="geometry">
                        <mxPoint x="550" y="280" as="sourcePoint"/>
                        <mxPoint x="550" y="360" as="targetPoint"/>
                    </mxGeometry>
                </mxCell>
                <mxCell id="Ispq_gNXn7621Qo1SKku-41" value="" style="whiteSpace=wrap;html=1;aspect=fixed;strokeColor=#F0F0F0;fontColor=#33FFFF;fillColor=#CC0000;" parent="1" vertex="1">
                    <mxGeometry x="490" y="290" width="50" height="50" as="geometry"/>
                </mxCell>
                <mxCell id="Ispq_gNXn7621Qo1SKku-42" value="" style="ellipse;whiteSpace=wrap;html=1;aspect=fixed;strokeColor=#33FFFF;fontColor=#33FFFF;fillColor=#33FFFF;" parent="1" vertex="1">
                    <mxGeometry x="513" y="313" width="4" height="4" as="geometry"/>
                </mxCell>
                <mxCell id="Ispq_gNXn7621Qo1SKku-44" value="" style="shape=flexArrow;endArrow=classic;html=1;strokeColor=default;fontColor=#33FFFF;" parent="1" edge="1">
                    <mxGeometry width="50" height="50" relative="1" as="geometry">
                        <mxPoint x="410" y="320" as="sourcePoint"/>
                        <mxPoint x="470" y="320" as="targetPoint"/>
                    </mxGeometry>
                </mxCell>
                <mxCell id="Ispq_gNXn7621Qo1SKku-45" value="shadow map" style="text;html=1;strokeColor=none;fillColor=none;align=center;verticalAlign=middle;whiteSpace=wrap;rounded=0;fontColor=#808080;" parent="1" vertex="1">
                    <mxGeometry x="490" y="354" width="90" height="30" as="geometry"/>
                </mxCell>
                <mxCell id="Ispq_gNXn7621Qo1SKku-50" value="blocker" style="text;html=1;strokeColor=none;fillColor=none;align=center;verticalAlign=middle;whiteSpace=wrap;rounded=0;fontColor=#00CC00;" parent="1" vertex="1">
                    <mxGeometry x="304" y="402" width="60" height="30" as="geometry"/>
                </mxCell>
                <mxCell id="yifRTS_tdGCTLIqlCZvr-3" value="" style="triangle;whiteSpace=wrap;html=1;fillColor=#00CC00;rotation=-169;" vertex="1" parent="1">
                    <mxGeometry x="301" y="380" width="24.12" height="29.71" as="geometry"/>
                </mxCell>
                <mxCell id="yifRTS_tdGCTLIqlCZvr-5" value="" style="whiteSpace=wrap;html=1;aspect=fixed;fillColor=#00CC00;strokeColor=#00CC00;" vertex="1" parent="1">
                    <mxGeometry x="530" y="290" width="10" height="10" as="geometry"/>
                </mxCell>
                <mxCell id="yifRTS_tdGCTLIqlCZvr-10" value="" style="whiteSpace=wrap;html=1;aspect=fixed;fillColor=#00CC00;strokeColor=#00CC00;" vertex="1" parent="1">
                    <mxGeometry x="530" y="300" width="10" height="10" as="geometry"/>
                </mxCell>
                <mxCell id="yifRTS_tdGCTLIqlCZvr-11" value="" style="whiteSpace=wrap;html=1;aspect=fixed;fillColor=#00CC00;strokeColor=#00CC00;" vertex="1" parent="1">
                    <mxGeometry x="520" y="300" width="10" height="10" as="geometry"/>
                </mxCell>
                <mxCell id="yifRTS_tdGCTLIqlCZvr-12" value="" style="whiteSpace=wrap;html=1;aspect=fixed;fillColor=#00CC00;strokeColor=#00CC00;" vertex="1" parent="1">
                    <mxGeometry x="530" y="310" width="10" height="10" as="geometry"/>
                </mxCell>
                <mxCell id="yifRTS_tdGCTLIqlCZvr-16" value="" style="whiteSpace=wrap;html=1;aspect=fixed;fillColor=#00CC00;strokeColor=#00CC00;" vertex="1" parent="1">
                    <mxGeometry x="520" y="290" width="10" height="10" as="geometry"/>
                </mxCell>
                <mxCell id="yifRTS_tdGCTLIqlCZvr-18" value="" style="whiteSpace=wrap;html=1;aspect=fixed;fillColor=#00CC00;strokeColor=#00CC00;" vertex="1" parent="1">
                    <mxGeometry x="510" y="300" width="10" height="10" as="geometry"/>
                </mxCell>
                <mxCell id="yifRTS_tdGCTLIqlCZvr-19" value="" style="whiteSpace=wrap;html=1;aspect=fixed;fillColor=#00CC00;strokeColor=#00CC00;" vertex="1" parent="1">
                    <mxGeometry x="530" y="320" width="10" height="10" as="geometry"/>
                </mxCell>
                <mxCell id="yifRTS_tdGCTLIqlCZvr-20" value="" style="whiteSpace=wrap;html=1;aspect=fixed;fillColor=#00CC00;strokeColor=#00CC00;" vertex="1" parent="1">
                    <mxGeometry x="520" y="310" width="10" height="10" as="geometry"/>
                </mxCell>
                <mxCell id="Ispq_gNXn7621Qo1SKku-27" value="" style="endArrow=none;html=1;strokeColor=default;fontColor=#33FFFF;" parent="1" edge="1">
                    <mxGeometry width="50" height="50" relative="1" as="geometry">
                        <mxPoint x="480" y="290" as="sourcePoint"/>
                        <mxPoint x="560" y="290" as="targetPoint"/>
                    </mxGeometry>
                </mxCell>
                <mxCell id="Ispq_gNXn7621Qo1SKku-39" value="" style="endArrow=none;html=1;strokeColor=default;fontColor=#33FFFF;" parent="1" edge="1">
                    <mxGeometry width="50" height="50" relative="1" as="geometry">
                        <mxPoint x="540" y="280" as="sourcePoint"/>
                        <mxPoint x="540" y="360" as="targetPoint"/>
                    </mxGeometry>
                </mxCell>
            </root>
        </mxGraphModel>
    </diagram>
</mxfile>